<svg width="20" height="20" viewBox="0 0 24 24" fill="none" xmlns="http://www.w3.org/2000/svg">
<path d="M12.05 19H10.25C9.6275 19 9.09688 18.7563 8.65812 18.2688C8.21937 17.7813 8 17.1917 8 16.5C8 15.8083 8.21937 15.2188 8.65812 14.7312C9.09688 14.2437 9.6275 14 10.25 14H12.05V15H10.25C9.875 15 9.55625 15.1458 9.29375 15.4375C9.03125 15.7292 8.9 16.0833 8.9 16.5C8.9 16.9167 9.03125 17.2708 9.29375 17.5625C9.55625 17.8542 9.875 18 10.25 18H12.05V19ZM10.7 17V16H14.3V17H10.7ZM12.95 19V18H14.75C15.125 18 15.4438 17.8542 15.7063 17.5625C15.9688 17.2708 16.1 16.9167 16.1 16.5C16.1 16.0833 15.9688 15.7292 15.7063 15.4375C15.4438 15.1458 15.125 15 14.75 15H12.95V14H14.75C15.3725 14 15.9031 14.2437 16.3419 14.7312C16.7806 15.2188 17 15.8083 17 16.5C17 17.1917 16.7806 17.7813 16.3419 18.2688C15.9031 18.7563 15.3725 19 14.75 19H12.95Z" fill="#333333"/>
<path d="M6 22C5.45 22 4.97917 21.8042 4.5875 21.4125C4.19583 21.0208 4 20.55 4 20V4C4 3.45 4.19583 2.97917 4.5875 2.5875C4.97917 2.19583 5.45 2 6 2H14L20 8V20C20 20.55 19.8042 21.0208 19.4125 21.4125C19.0208 21.8042 18.55 22 18 22H6ZM13 9V4H6V20H18V9H13Z" fill="#333333"/>
</svg>
