<?xml version="1.0" standalone="no"?>
<!DOCTYPE svg PUBLIC "-//W3C//DTD SVG 1.1//EN" "http://www.w3.org/Graphics/SVG/1.1/DTD/svg11.dtd" >
<svg xmlns="http://www.w3.org/2000/svg">
<metadata>
This is a custom SVG webfont generated by Font Squirrel.
Copyright   : c 2000 Nick Curtis All Rights Reserved Generated by Fontographer 352 
</metadata>
<defs>
<font id="webfontxeOSRS6W" horiz-adv-x="1024" >
<font-face units-per-em="2048" ascent="1638" descent="-410" />
<missing-glyph horiz-adv-x="409" />
<glyph unicode=" "  horiz-adv-x="409" />
<glyph unicode="&#x09;" horiz-adv-x="409" />
<glyph unicode="&#xa0;" horiz-adv-x="409" />
<glyph unicode="!" horiz-adv-x="266" d="M12 74q0 39 27 65.5t65 26.5q37 0 64 -26.5t27 -65.5q0 -37 -27 -62.5t-64 -25.5q-39 0 -65.5 25.5t-26.5 62.5zM12 328v719q0 59 42 101t100 42q29 0 55.5 -10.5t46.5 -30.5l-43 -43q-10 10 -23.5 17t-29.5 7h-3h-3v-843q0 -4 3 -7.5t7 -3.5q2 0 3 2q5 3 8 6t5 7l29 -55 q-16 -14 -34.5 -20.5t-41.5 -6.5q-51 0 -86 35t-35 84z" />
<glyph unicode="&#x22;" horiz-adv-x="382" d="M10 1120q0 14 4 27.5t13 26.5q14 18 33.5 27t39.5 9h10q5 0 9 -2q10 -2 19 -6t18 -10q16 -14 25 -32.5t9 -41.5q0 -14 -4 -27.5t-14 -25.5l-86 -115l-47 35l35 47q-4 0 -7.5 2t-7.5 4t-7 4t-7 5q-16 14 -25.5 33.5t-9.5 39.5zM195 1120q0 14 4 27.5t12 26.5 q14 18 33.5 27t40.5 9h9q5 0 9 -2q10 -2 19.5 -6t17.5 -10q16 -14 25.5 -32.5t9.5 -41.5q0 -14 -4 -27.5t-15 -25.5l-86 -115l-47 35l35 47q-4 0 -7 2t-7 4t-7.5 4t-7.5 5q-16 14 -25 33.5t-9 39.5z" />
<glyph unicode="#" />
<glyph unicode="$" horiz-adv-x="395" d="M18 514v5v5q0 27 15.5 47.5t44.5 22.5h2q37 0 64.5 -29.5t29.5 -64.5v-3v-3v-9q0 -4 -2 -8q0 -4 -2 -8l-4 -8q8 -2 17.5 -3t19.5 -1q12 0 24.5 2t20.5 10q4 2 6 5t4 5q0 2 1 5t1 5q0 8 -14.5 22.5t-34.5 31.5l-5 5q-3 3 -7 5l-32 25l-24 18q-43 31 -77.5 63.5t-34.5 73.5 q0 47 35.5 76t76.5 41q4 2 8.5 3t8.5 1v225h59v-223q4 0 9 -1t10 -1q39 -6 72.5 -26.5t43.5 -61.5q0 -2 1 -5t1 -5v-5v-6q0 -25 -14 -44t-43 -21h-2q-35 0 -60.5 28.5t-27.5 61.5v3v3v5q0 3 2 5q0 2 1 5.5t1 5.5h-4q-2 0 -2 2h-4h-4h-6h-7q-16 -2 -29.5 -9.5t-13.5 -21.5 q0 -6 14.5 -19.5t32.5 -27.5q2 -2 5.5 -4t7.5 -6l28 -21l23 -16q47 -33 85 -68t38 -80q0 -49 -40 -80.5t-87 -44.5q-8 0 -15.5 -2t-15.5 -2v-209h-59v213q-4 0 -9.5 1t-9.5 4q-41 10 -75.5 34.5t-45.5 63.5q0 2 -1 5t-1 5z" />
<glyph unicode="%" />
<glyph unicode="&#x26;" horiz-adv-x="1181" d="M4 387q0 135 94.5 214t206.5 130l70 30.5t65 29.5q-2 4 -3 8t-1 8q-10 37 -19 77t-14 83q-2 10 -2 20v21q0 53 14.5 100t47.5 84q27 29 58.5 45t62.5 20q8 2 14 3h12q82 -2 146.5 -64.5t64.5 -159.5q0 -117 -73.5 -165t-161.5 -83l-29 -12l-29 -12q14 -31 32 -59l36 -58 q94 -2 187 -2h188q45 0 72.5 30t31.5 64v7v8q0 29 -17.5 51t-53.5 22q-12 0 -19.5 -2t-11.5 -4t-7 -3t-8 -1q-4 -2 -12 6t-28 33q8 6 15 10t13 8q14 8 29.5 11.5t28.5 3.5q53 0 93 -42t40 -99q0 -8 -1 -18.5t-3 -18.5q-6 -18 -16.5 -37t-29.5 -37q-33 -33 -73.5 -42 t-85.5 -9h-24q-11 0 -21 2h-24h-23q53 -41 78.5 -97.5t25.5 -117.5q0 -8 -1 -18.5t-1 -18.5q-6 -37 -19.5 -74t-33.5 -69q14 -39 20 -77t6 -77q0 -76 -28.5 -147.5t-87.5 -129.5q-57 -59 -130 -86.5t-149 -27.5q-106 0 -201.5 54t-150.5 157l51 24q41 -76 116 -125t156 -49 q47 0 91.5 19.5t83.5 60.5q47 51 69.5 116.5t22.5 133.5v12v12q-61 -39 -134 -57t-149 -18q-174 0 -320.5 103t-146.5 296zM178 379q0 -63 23.5 -126t74.5 -114q49 -51 107.5 -73.5t120.5 -22.5q63 0 124.5 22.5t116.5 63.5q-18 88 -59 171t-88 163q-12 18 -24 39l-21 39 l-12 23l-13 22q-51 -4 -90 -44t-39 -93v-9q0 -4 2 -8q0 -4 1 -8t4 -8q10 16 22 23t27 5q4 0 7 -1t7 -1q29 -8 53.5 -33.5t28.5 -54.5q2 -4 2 -8v-8q0 -14 -5 -26.5t-20 -22.5q-8 -6 -17 -9.5t-19 -3.5q-10 2 -21.5 5.5t-21.5 9.5q-55 25 -81 68.5t-26 91.5v4v4 q2 61 43 114.5t115 69.5l-20 45l-19 47q-2 -2 -15 -7l-26 -11h-1q-15 -6 -28 -12l-12 -7q-96 -45 -148.5 -133t-52.5 -186zM461 1036q0 -57 11 -111.5t32 -107.5l20 8l21 9q8 4 18 7t19 7q68 25 124 64.5t56 123.5q0 80 -47 120t-105 40q-57 0 -103 -40t-46 -120zM635 588 l29 -40l28 -40q4 -4 7 -9t8 -10q41 -55 78.5 -111t68.5 -118q12 29 18.5 57.5t6.5 57.5q0 84 -53.5 147.5t-153.5 65.5h-37z" />
<glyph unicode="'" horiz-adv-x="200" d="M10 1120q0 14 4 27.5t13 26.5q14 18 33.5 27t39.5 9h10q5 0 9 -2q10 -2 19 -6t18 -10q16 -14 25 -32.5t9 -41.5q0 -14 -4 -27.5t-14 -25.5l-86 -115l-47 35l35 47q-4 0 -7.5 2t-7.5 4t-7 4t-7 5q-16 14 -25.5 33.5t-9.5 39.5z" />
<glyph unicode="(" horiz-adv-x="387" d="M18 508q0 45 3.5 93t9.5 95q25 166 101.5 313.5t236.5 211.5v-68q-61 -39 -94 -100.5t-54 -126.5q-27 -86 -40 -192.5t-13 -225.5q0 -57 3 -131t15 -150q16 -111 58.5 -211t124.5 -151v-70q-98 41 -161 109.5t-106 163.5q-39 90 -61.5 202.5t-22.5 237.5z" />
<glyph unicode=")" horiz-adv-x="387" d="M16 -137q82 53 124 153.5t59 210.5q12 76 15 150t3 131q0 119 -13.5 225.5t-39.5 192.5q-20 66 -53 127t-95 100v68q160 -63 237 -211t101 -314q6 -47 9.5 -95t3.5 -93q0 -125 -21.5 -237.5t-62.5 -202.5q-43 -94 -105.5 -163t-161.5 -108v-2v68z" />
<glyph unicode="*" horiz-adv-x="368" d="M16 989l109 64l-109 61l31 51l109 -63v127h59v-125l109 63l28 -51l-108 -63l108 -64l-28 -51l-109 61v-125h-59v127l-109 -61z" />
<glyph unicode="+" />
<glyph unicode="," horiz-adv-x="200" d="M10 76q0 14 4 27.5t13 25.5q14 18 33.5 27.5t39.5 9.5h10q5 0 9 -2q10 -2 19 -6t18 -11q16 -14 25 -32.5t9 -38.5q0 -14 -4 -28.5t-14 -27.5l-86 -114l-47 35l35 47q-4 2 -7.5 4t-7.5 4t-7 3t-7 3q-16 14 -25.5 34t-9.5 40z" />
<glyph unicode="-" horiz-adv-x="307" d="M14 424v135h279v-135h-279z" />
<glyph unicode="." horiz-adv-x="266" d="M12 74q0 39 27 65.5t65 26.5q37 0 64 -26.5t27 -65.5q0 -37 -27 -62.5t-64 -25.5q-39 0 -65.5 25.5t-26.5 62.5z" />
<glyph unicode="/" horiz-adv-x="557" d="M18 -369l394 1727h98l-395 -1727h-97z" />
<glyph unicode="0" horiz-adv-x="706" d="M6 406q0 78 23.5 150.5t68.5 129.5q43 57 102.5 90t127.5 33q66 0 125 -33t102 -90q47 -57 69.5 -131t22.5 -152q0 -76 -22.5 -149.5t-69.5 -132.5q-43 -55 -97.5 -85t-109.5 -36h-11h-11q-63 0 -122 30.5t-106 90.5q-45 59 -68.5 134t-23.5 151zM168 403 q0 -74 13.5 -138t37.5 -111q23 -45 50.5 -70t58.5 -25q53 0 100 27t82 72q41 51 60.5 114.5t19.5 130.5q0 68 -19.5 132.5t-60.5 115.5q-35 47 -82 73t-100 26q-31 0 -58.5 -26t-50.5 -69q-25 -47 -38 -111.5t-13 -140.5z" />
<glyph unicode="1" horiz-adv-x="483" d="M0 0v59h147v691h-98v59h250v-750h139v-59h-438z" />
<glyph unicode="2" horiz-adv-x="530" d="M8 0l79 127l79 127l81 125l79 127q14 23 23 51.5t9 56.5q0 27 -9 51.5t-27 45.5q-12 14 -25.5 21t-28.5 11q-6 2 -13 3.5t-13 1.5h-10q-5 0 -11 -3q-25 -4 -48 -19t-42 -36q-25 -29 -40 -67.5t-15 -83.5l-60 2v4v2q4 92 60.5 169t152.5 91q8 2 16 2h15q47 0 90 -17.5 t76 -52.5t48 -81t15 -95v-11v-11q-4 -41 -17 -80t-36 -72l2 2l-211 -332h230v-59h-449z" />
<glyph unicode="3" horiz-adv-x="567" d="M0 127l49 31q25 -37 64 -62.5t82 -32.5h3h3h4q6 0 11 1.5t9 1.5q18 6 36 16t30 22q2 2 5 4.5t5 4.5q29 31 43 70.5t14 80.5t-13 78t-40 68q-25 29 -56.5 43t-68.5 14v2h-32h-33l215 281h-258v59h379l-215 -281q111 2 195.5 -73.5t84.5 -190.5q0 -55 -22.5 -103t-59.5 -83 q-43 -39 -95 -58.5t-106 -19.5q-68 0 -130 32t-103 95z" />
<glyph unicode="4" horiz-adv-x="720" d="M2 137l285 672h164l-258 -612h227v485h149v-485h105v-60h-105v-256h-149v256h-418z" />
<glyph unicode="5" horiz-adv-x="542" d="M0 137l49 29q23 -37 56.5 -63.5t74.5 -36.5h4h4h2h5q29 0 52 15t42 36q29 35 44 79t15 91v9v9q-2 39 -16.5 78t-40.5 68q-20 27 -45 38t-49 9q-27 0 -52.5 -10.5t-50.5 -28.5q-6 -4 -12 -9.5t-10 -9.5q-6 -4 -12.5 -9t-12.5 -9v387h399v-59h-340v-218q33 16 69 24.5 t73 8.5q57 0 110.5 -23.5t90.5 -70.5q25 -33 40 -80t15 -108q0 -113 -79 -198t-194 -85q-72 0 -134 37t-97 100z" />
<glyph unicode="6" horiz-adv-x="704" d="M6 375v10v8q0 66 16.5 130.5t49.5 117.5l336 551h180l-240 -395q121 -10 194.5 -104.5t96.5 -205.5q2 -12 3 -23t3 -21.5t2 -21.5v-22q0 -18 -1 -36.5t-5 -36.5q-16 -117 -87 -217.5t-192 -114.5q-8 -2 -17 -2h-17q-57 0 -109.5 23.5t-93.5 62.5q-57 57 -87 136t-32 161z M68 336q2 -14 5 -28.5t7 -28.5q25 -86 88 -159t160 -71h3h3l250 410l-4 23q-2 11 -7 24q-25 88 -87 161.5t-160 71.5h-5h-8z" />
<glyph unicode="7" horiz-adv-x="548" d="M-80 -147l316 897h-224v59h408l-338 -956h-162z" />
<glyph unicode="8" horiz-adv-x="735" d="M4 324q0 96 56.5 179t156.5 122q-53 33 -80.5 84t-27.5 106q0 43 17 85t52 75t79 49t89 14h9h12q39 -4 76.5 -19t68.5 -44q27 -27 43 -58.5t23 -64.5q2 -8 3 -17.5t1 -19.5q0 -55 -28 -106.5t-81 -83.5q102 -39 157.5 -123t55.5 -180q0 -61 -23.5 -120t-76.5 -108 q-45 -43 -102.5 -66.5t-116.5 -27.5h-11h-12q-66 0 -128 24.5t-112 69.5q-51 49 -76.5 109t-23.5 121zM164 324q0 -20 3 -45t9 -50q18 -63 59 -116.5t109 -53.5q111 0 198 75t87 189.5t-86 190.5t-199 76q-68 0 -109.5 -54.5t-58.5 -119.5q-6 -25 -9 -48.5t-3 -43.5z M258 815q0 -14 2 -33.5t8 -40.5q10 -37 28.5 -65.5t47.5 -28.5q72 0 125 48t53 120t-53 119t-125 47q-29 0 -47 -28.5t-29 -63.5q-4 -20 -7 -41t-3 -33z" />
<glyph unicode="9" horiz-adv-x="700" d="M4 382v21q0 18 1 37t5 37q16 117 87 217.5t192 116.5q10 2 18 2h17q59 0 110 -23.5t92 -64.5q57 -57 87 -136t32 -161v-10v-8q0 -66 -16.5 -130.5t-48.5 -117.5l-336 -551h-181l240 395q-121 10 -194.5 104.5t-96.5 204.5q-2 12 -3 23.5t-3 21.5q-2 11 -2 22zM68 344 l4 -23q2 -11 6 -24q25 -88 87 -162t161 -72h7h5l246 404q-2 14 -5.5 28.5t-7.5 28.5q-25 86 -88 159t-159 71h-3h-4z" />
<glyph unicode=":" horiz-adv-x="266" d="M12 74q0 39 27 65.5t65 26.5q37 0 64 -26.5t27 -65.5q0 -37 -27 -62.5t-64 -25.5q-39 0 -65.5 25.5t-26.5 62.5zM12 381q0 39 27 65.5t65 26.5q37 0 64 -26.5t27 -65.5q0 -37 -27 -63.5t-64 -26.5q-39 0 -65.5 26.5t-26.5 63.5z" />
<glyph unicode=";" horiz-adv-x="266" d="M12 381q0 39 27 65.5t65 26.5q37 0 64 -26.5t27 -65.5q0 -37 -27 -63.5t-64 -26.5q-39 0 -65.5 26.5t-26.5 63.5zM14 76q0 14 4.5 27.5t12.5 25.5q14 18 33.5 27.5t39.5 9.5h10q5 0 9 -2q10 -2 19.5 -6t17.5 -11q16 -14 25.5 -32.5t9.5 -40.5q0 -14 -4.5 -27.5 t-14.5 -26.5l-86 -114l-47 35l35 47q-4 2 -7 4t-8 4q-4 2 -7 3t-7 3q-16 14 -25.5 34t-9.5 40z" />
<glyph unicode="&#x3c;" />
<glyph unicode="=" />
<glyph unicode="&#x3e;" />
<glyph unicode="?" horiz-adv-x="690" d="M10 901q0 127 101.5 208t228.5 81q141 0 236.5 -104.5t95.5 -243.5q0 -18 -2 -39t-6 -39q-12 -68 -49 -129.5t-101 -87.5q-14 -6 -31.5 -15.5t-36.5 -17.5q-47 -27 -85.5 -65.5t-38.5 -92.5v-21v-34v-31v-22h-60v22v31v34v21q0 78 42 142.5t99 109.5q57 43 83 103.5 t26 130.5q0 63 -15.5 117.5t-45.5 93.5q-23 29 -58 49t-74 24q-6 2 -11 2h-11h-7q-3 0 -7 -2q-4 0 -7.5 -1t-7.5 -1q-76 -16 -133 -71.5t-63 -134.5q4 0 9 -1.5t9 -1.5q27 -8 50.5 -31.5t29.5 -49.5v-6v-5q-2 -8 -5 -17t-9 -18q-6 -8 -15.5 -13t-19.5 -7q-2 -2 -5 -2h-7h-9 q-4 0 -6 2q-31 6 -54.5 31.5t-25.5 56.5q-2 12 -3 23.5t-1 21.5zM211 74q0 39 26.5 65.5t63.5 26.5q39 0 65.5 -26.5t26.5 -65.5q0 -37 -26.5 -62.5t-65.5 -25.5q-37 0 -63.5 25.5t-26.5 62.5z" />
<glyph unicode="@" horiz-adv-x="1921" d="M88 1143q0 10 1 20.5t3 20.5q0 10 3 20t5 21q35 102 112 141t169 39q25 0 49.5 -2t48.5 -6q66 -10 128.5 -29.5t117.5 -40.5q18 -8 44 -17l54 -20l65 -20t68 -19q27 -6 54.5 -9t52.5 -3q53 0 95 19.5t59 70.5l73 -29l-497 -1470q-29 -86 -105 -138t-164 -52q-8 0 -17 1 t-18 1q-10 2 -18 4t-18 4l16 71q12 -2 24.5 -3t24.5 -1q68 0 124 42t77 104l446 1315q-27 -10 -55.5 -15.5t-56.5 -5.5q-70 0 -143.5 22.5t-147.5 51.5q-6 4 -13.5 6t-13.5 6q-80 31 -158.5 56.5t-152.5 27.5h-7h-9q-20 0 -49 -3t-60 -13q-39 -12 -74 -40t-51 -77 q-4 -14 -7 -29.5t-3 -29.5q2 -53 31.5 -98.5t89.5 -61.5l-17 -76q-88 23 -134 92.5t-46 151.5zM961 45l395 1163q20 53 72.5 93t111.5 40l6 -75q-6 0 -13 -1t-13 -3q-29 -8 -54.5 -32t-35.5 -52l-302 -893q4 4 10.5 8t10.5 8q23 16 48.5 30.5t49.5 20.5q10 4 19.5 5t17.5 1 q27 0 46.5 -10t33.5 -31q16 -20 21.5 -46.5t5.5 -55.5v-15q0 -7 -2 -16q-2 -31 -8.5 -59.5t-14.5 -52.5q-4 -18 -9 -32.5l-9 -25.5l-74 31q4 8 8 21l8 24q6 16 10.5 34.5t8.5 39.5q4 14 5 30.5t1 30.5q0 16 -3 29.5t-9 21.5q-2 2 -4.5 3.5t-8.5 1.5q-12 0 -24.5 -3.5 t-24.5 -9.5q-43 -18 -83 -61t-71 -92q-18 -27 -30.5 -52.5t-20.5 -48.5zM1401 127q0 10 2 20l4 21q20 74 94 134t164 60q10 0 18.5 -1t18.5 -1q8 -2 17.5 -4t17.5 -6t22.5 -13t30.5 -26q12 -12 24.5 -29.5t20.5 -37.5l-315 -166q12 -4 24 -7t27 -3h9q5 0 9 2q49 4 92 33.5 t66 66.5l68 -43q-35 -57 -101.5 -96t-138.5 -39q-8 0 -17.5 1t-17.5 1q-8 2 -17.5 4t-17.5 4q-55 18 -79.5 52t-24.5 73zM1483 150l239 124l-1 1l-1 1q-2 0 -3 2q-11 5 -22.5 6t-21.5 1q-8 0 -15 -1t-13 -1q-55 -10 -103.5 -48t-58.5 -85z" />
<glyph unicode="A" horiz-adv-x="1161" d="M-315 -201q0 74 50 125t118 51q16 0 33.5 -4t33.5 -12q2 0 3 -1t3 -1q23 -12 42.5 -37.5t23.5 -52.5v-4v-4q-2 -14 -7 -26.5t-20 -22.5q-10 -6 -19 -9.5t-18 -3.5q-29 0 -54.5 25.5t-35.5 56.5q0 6 -1 12.5t-1 12.5v3v1v3v3q-43 -8 -67.5 -40t-24.5 -75 q0 -74 55.5 -114.5t122.5 -46.5h8h9q119 0 197.5 80.5t135.5 207.5q-115 57 -187.5 167t-72.5 239v19q0 9 2 18q16 170 139 271t281 101h21q10 0 22 -2q10 0 21 -2l20 -4q8 27 18.5 53.5l22.5 55.5q55 131 149.5 240.5t249.5 109.5h158v-59h-121v-1074h142v-59h-441v59h150 v179q0 78 -19.5 150.5t-74.5 139.5q-39 47 -89.5 81t-105.5 53q-23 -72 -43 -145l-39 -146l-58 -209q-30 -104 -69 -205q35 -12 70 -18.5t69 -6.5v-59l-41 4q-20 2 -38 4q-20 4 -41 9.5t-41 11.5q-61 -143 -153.5 -233.5t-233.5 -90.5q-96 0 -175 59.5t-79 161.5zM72 330 q2 -111 63.5 -205t159.5 -143q39 98 68.5 201.5l56.5 207.5l4 15.5l4 15.5l34 127q17 63 38 127q-16 4 -33.5 5t-34.5 1q-135 0 -240.5 -86t-117.5 -231v-9v-8q-2 -6 -2 -10v-8zM575 717q84 -27 154 -83t115 -134v608q-94 -43 -158 -147.5t-111 -243.5z" />
<glyph unicode="B" horiz-adv-x="1046" d="M10 770q0 209 137 343q133 130 334 130h13q31 45 67.5 86t75.5 76l41 -43q-31 -27 -52.5 -58.5t-41.5 -66.5q145 -16 246.5 -93t101.5 -241q0 -88 -52.5 -143t-129.5 -84q123 -35 195.5 -131t72.5 -207v-17q0 -9 -2 -18q-6 -53 -32 -104.5t-73 -98.5 q-66 -63 -140.5 -81.5t-160.5 -18.5h-220h-218v59h147v265q-139 49 -224 172.5t-85 273.5zM70 758q2 -115 64.5 -218.5t184.5 -154.5v155v152q0 129 35 253t99 235h-9h-8h-8h-8q-172 -20 -262 -144q-88 -120 -88 -262v-5.5v-5.5v-5zM473 59h25h22q12 -2 24 -2h23 q61 0 116.5 14.5t102.5 69.5q39 45 57.5 97.5t18.5 105.5q0 111 -71.5 201t-198.5 90h-61h-58v-279q59 0 117.5 18.5t107.5 53.5l35 -47q-57 -39 -123.5 -61.5t-136.5 -22.5v-238zM473 696q123 0 208 45t85 183q0 104 -61.5 163.5t-157.5 79.5q-53 -113 -63.5 -230.5 t-10.5 -240.5z" />
<glyph unicode="C" horiz-adv-x="978" d="M2 596q0 242 162 419t409 177q12 0 24.5 -1t25.5 -3q111 -14 203 -91t92 -198q0 -49 -29 -86t-68 -37q-8 0 -17 2t-18 8q-8 4 -17 12.5t-17 20.5q-12 16 -17.5 31.5t-5.5 30.5q2 29 19.5 45t44.5 16q8 0 16 -2t16 -6l17 -12q8 -6 16 -17q-2 90 -72.5 148.5t-152.5 74.5 q-10 2 -20.5 3.5t-20.5 1.5v-3q-100 0 -179 -37.5t-132 -103.5q-61 -76 -92 -180t-31 -217v-3v-3q2 -199 105 -364q102 -163 309 -163h6q12 0 23 1t22 3q80 14 154.5 64.5t121.5 108.5l45 -37q-66 -82 -157 -134.5t-195 -62.5h-12h-13q-6 -2 -12 -2h-12q-240 0 -390.5 184.5 t-150.5 411.5z" />
<glyph unicode="D" horiz-adv-x="1247" d="M2 743q0 201 135 324t330 125q37 59 82 113.5t96 99.5l39 -43l-5 -5l-5 -5q-4 -2 -6 -5.5t-6 -5.5q-31 -39 -54.5 -76.5t-42.5 -72.5q139 0 257 -36t218 -140q90 -90 132 -198q40 -103 41 -208q0 -5 -1 -10q0 -229 -161.5 -414.5t-429.5 -185.5h-443v59h150v258 q-141 41 -233.5 158.5t-92.5 267.5zM59 743q0 -125 76 -224t193 -140v48v48q0 24 -1 49q0 145 11 284q12 163 96 322q-160 -8 -267.5 -115.5t-107.5 -271.5zM479 59h96q215 0 348.5 167t133.5 370q0 201 -133 369t-349 168h-17h-19q-39 -90 -49.5 -185.5t-10.5 -191.5v-32 v-32v-85v-83v-83v-85q57 2 111.5 19.5t99.5 48.5l33 -47q-53 -37 -115.5 -57.5t-128.5 -22.5v-238z" />
<glyph unicode="E" horiz-adv-x="802" d="M8 334v14q0 104 65.5 195.5t178.5 134.5q-72 33 -122 95.5t-50 144.5q0 121 93 193.5t204 78.5h11h11q90 0 167 -48t98 -157q2 -6 2 -12v-12q0 -31 -17.5 -47.5t-42.5 -16.5q-8 0 -15 2t-16 6q-12 4 -22 12.5t-18 20.5q-6 10 -11.5 22.5t-7.5 26.5q-2 4 -2 8v9 q0 23 12.5 40t40.5 19q-29 35 -69.5 51t-85.5 19h-8h-7q-84 -2 -126 -63.5t-42 -137.5v-8v-9q2 -41 17.5 -78.5t44.5 -66.5q20 -20 51 -38.5t64 -24.5q8 0 16 -1t16 -1h7h6h124v-60h-20h-18h-27q-65 0 -124 -8q-71 -10 -136 -78q-39 -39 -59.5 -94t-22.5 -111v-10v-8 q0 -104 60.5 -190.5t179.5 -86.5q115 0 203.5 57.5t117.5 174.5l57 -15q-33 -137 -142 -206.5t-236 -69.5q-76 0 -150 25.5t-133 76.5q-53 47 -82 103.5t-33 113.5q-2 7 -2 15z" />
<glyph unicode="F" horiz-adv-x="1202" d="M-2 242q0 86 64.5 151.5t142.5 67.5h3h3q31 0 59.5 -11.5t55.5 -37.5q20 -20 33.5 -50t17.5 -63v-5v-7v-9q0 -5 -2 -10q0 -10 -3 -19t-10 -18q-10 -20 -28.5 -32.5t-40.5 -10.5q-6 0 -12.5 1t-12.5 4q-29 10 -45 32.5t-20 46.5q0 4 -1 9.5t-1 11.5q0 25 13 43t40 18 q6 0 13 -1t16 -5q6 -2 12 -5t10 -7q-14 35 -40.5 50t-55.5 15h-9q-5 0 -12 -2q-51 -8 -93 -52t-42 -105q0 -102 77 -159.5t173 -57.5q92 0 151.5 68.5t90.5 152.5l12 40q6 19 10 38q-133 47 -218 161.5t-85 257.5q0 174 109.5 298t281.5 147q43 74 109.5 128t142.5 93 l29 -51q-53 -27 -101.5 -68t-70.5 -98h401v-281h-57v222h-360q-8 -47 -10.5 -108.5t-2.5 -143.5v-48v-49v-48v-48h223v168h60v-395h-60v168h-223v-28v-28v-26v-27q0 -43 -2 -84t-10 -80h23q11 0 24 2l24 4l23 5l12 -58q-25 -6 -50 -9t-52 -3h-9h-9q-43 -137 -147.5 -233.5 t-256.5 -96.5q-119 0 -213 72t-94 203zM324 748q0 -113 63.5 -214.5t190.5 -150.5q2 16 3 33.5t3 36.5v17v17v197v197q0 72 10 131t31 110q-150 -33 -225.5 -141t-75.5 -233z" />
<glyph unicode="G" horiz-adv-x="1146" d="M6 563v16v13q0 229 152.5 414.5t419.5 185.5q12 0 24 -1t25 -3q111 -14 203 -91t92 -198q0 -6 -1 -13t-1 -16q-6 -29 -22.5 -55.5t-47.5 -34.5q-6 -2 -12.5 -3t-12.5 -1q-37 2 -58.5 27.5t-27.5 56.5q0 6 -1 11.5t-1 11.5q0 25 12.5 43t38.5 18q6 0 14.5 -1t16.5 -5h-2 q12 -4 24.5 -12t20.5 -21q-2 88 -69.5 145.5t-149.5 75.5l-23 4q-11 2 -24 3v-3q-225 0 -329.5 -166.5t-104.5 -367.5q0 -117 29.5 -219.5t91.5 -175.5q59 -72 131.5 -106t150.5 -34q12 0 23.5 1t23.5 4q47 6 93.5 23t89.5 46l19 11q9 5 20 10v245h-248v58h524v-58h-123v-49 v-90q0 -51 -1 -95l-1 -44q23 -20 38 -51t15 -66h-59q0 45 -30.5 71.5t-69.5 26.5q-14 0 -26.5 -4t-25.5 -12q-66 -45 -138.5 -66.5t-145.5 -21.5q-102 0 -201.5 44t-177.5 132q-76 84 -115 184.5t-43 202.5z" />
<glyph unicode="H" horiz-adv-x="1198" d="M-416 -205q0 49 28 88t75 56q2 0 5 1t5 1q2 2 5 2h5q33 -2 58.5 -28t33.5 -56q2 -6 3 -11.5t1 -11.5q0 -16 -6 -28.5t-18 -20.5q-10 -6 -19.5 -9t-17.5 -3q-29 0 -52.5 20.5t-33.5 44.5q-6 -12 -9 -24.5t-3 -24.5v-11q0 -5 2 -9q6 -37 25.5 -69t43.5 -52q31 -27 73 -43.5 t95 -16.5h3h3q117 0 174.5 86t73.5 191q4 25 6 50.5t2 49.5v1166h-145v59h442v-59h-141v-461h565v461h-149v59h442v-59h-141v-1074h141v-59h-442v59h149v553h-565v-288v-291q0 -12 -1 -24.5t-1 -26.5q-14 -168 -118.5 -309.5t-291.5 -141.5h-8h-8q-109 6 -199 75.5 t-90 188.5z" />
<glyph unicode="I" horiz-adv-x="485" d="M0 0v59h147v1074h-147v59h442v-59h-141v-1074h141v-59h-442z" />
<glyph unicode="J" horiz-adv-x="495" d="M-334 -214q0 5 2 11q6 43 37 79t72 36q16 0 33.5 -9t33.5 -30q14 -16 19.5 -31.5t5.5 -29.5q0 -25 -18.5 -40.5t-45.5 -15.5q-6 0 -14 1t-14 5q-12 4 -24.5 13.5t-22.5 25.5q-4 -10 -4 -18v-16q0 -61 49 -110.5t108 -62.5q8 -2 16.5 -3t16.5 -1h2q96 2 149.5 75t71.5 161 q6 29 9.5 55.5t3.5 50.5v1201h-146v59h443v-59h-144v-569v-568q0 -25 -2 -49.5t-6 -50.5q-25 -137 -112 -251t-238 -114h-8h-9q-100 6 -182 68.5t-82 177.5v9z" />
<glyph unicode="K" horiz-adv-x="1603" d="M2 242q0 90 63.5 153.5t151.5 63.5q70 0 117 -49.5t49 -114.5q0 -55 -24.5 -81t-57.5 -26h-3h-3q-33 2 -60.5 29t-29.5 70v3v3q0 27 16.5 44t40.5 17h7q3 0 7 -2q2 0 6.5 -1t6.5 -3q6 -2 12 -5t10 -7q-14 35 -40.5 50t-59.5 15q-4 0 -9 -1t-9 -1q-23 -4 -45.5 -15 t-41.5 -30q-25 -25 -35 -53.5t-10 -60.5q0 -6 1 -13.5t1 -15.5q6 -35 23.5 -67.5t44.5 -57.5q31 -27 76 -44t100 -17q111 0 173.5 89t86.5 193q12 49 17.5 95.5t5.5 84.5v323v323h-150v59h443v-59h-142l-2 -408l11 -12l93 105l91 106l93 105l91 106q23 25 48.5 38t52.5 17 h11h11q63 0 116 -45q50 -43 50 -106q0 -23 -5 -41.5t-16 -39.5q-8 -14 -21 -22t-28 -6q-4 0 -7 1t-7 1q-29 8 -53.5 33.5t-28.5 54.5q-2 4 -2 8v8q0 14 5 27.5t20 21.5q8 6 17 9.5t19 1.5q6 0 12.5 -1t12.5 -3h1q1 0 3 -2q-14 20 -37.5 31.5t-50.5 11.5h-4 q-20 -2 -39.5 -11.5t-34.5 -25.5l-158 -181l-157 -180l187 -270l186 -270q2 -4 4 -7.5t6 -5.5q25 -35 58.5 -64.5t76.5 -35.5q2 0 5 -1t5 -1h5h5q49 0 85 41t47 90q2 10 3 19.5t1 19.5h59q0 -102 -73.5 -176t-176.5 -74q-76 0 -144.5 37t-113.5 100l-164 241l-166 238 q-2 -4 -4 -19t-2 -34v-4v-4v-19q0 -9 2 -18v-18v-13v-19q0 -9 -2 -19q-10 -180 -119.5 -331t-312.5 -151q-119 2 -211 75t-92 200z" />
<glyph unicode="L" horiz-adv-x="931" d="M2 86q2 47 36 88t103 43h3h3h5q35 0 74.5 -9t84.5 -26q10 31 14.5 68t4.5 78v244v243q0 20 2 43t6 43q20 121 97 220.5t210 99.5q92 0 169 -56.5t77 -158.5q0 -51 -34 -88q-32 -35 -70 -35h-5h-9q-5 0 -9 2q-14 2 -27.5 11t-25.5 24q-14 16 -19.5 31.5t-5.5 29.5 q0 27 19.5 42t46.5 15q6 0 12 -1t10 -3q16 -6 30.5 -17t24.5 -30q2 8 3.5 15.5t1.5 13.5q-2 53 -43 91t-93 50q-8 2 -17 3t-17 1h-2q-88 -2 -128 -66.5t-49 -142.5q-2 -10 -2 -19v-20v-258v-256q0 -72 -17 -137t-50 -119l106 -48l107 -50q6 -4 13 -7t15 -7l170 -79 q86 -40 177 -73q70 -25 134 -40t117 -15q59 0 106.5 21.5t74.5 72.5q4 8 9 16.5t7 18.5l49 -21v-1v-3q-2 0 -2 -1q0 -7 -2 -13t-8 -20q-33 -96 -99.5 -136.5t-150.5 -40.5q-51 0 -106.5 12.5t-110.5 30.5q-55 20 -111 46l-106 51l-108 59l-87 49l-121 64l-114 57 q-45 -55 -107.5 -86t-132.5 -33q-66 0 -99.5 37t-33.5 82zM61 86q0 -27 20.5 -44t51.5 -17q53 0 93 29.5t65 74.5l-16 5q-9 3 -19 5q-14 6 -31.5 9.5l-36.5 7.5q-8 0 -17 1t-17 1q-29 0 -52.5 -9.5t-33.5 -33.5q-2 -4 -3.5 -7.5t-1.5 -7.5q-2 -4 -2 -7v-7z" />
<glyph unicode="M" horiz-adv-x="1435" d="M2 0v59h145v1074h-145v59h309l381 -610l412 610h299v-59h-141v-1074h141v-59h-442v59h149v1037l-385 -572q29 -51 53.5 -116.5t36.5 -133.5q4 -23 6 -44t2 -42q0 -31 -5 -59.5t-15 -56.5q-16 -47 -53 -72t-78 -29h-5h-5q-33 0 -65 14.5t-54 47.5q-25 33 -35 67.5 t-10 71.5q0 10 1 20.5t1 20.5q10 63 38.5 122.5t61.5 108.5l-393 627v-1012h141v-59h-346zM557 172q0 -27 8 -54.5t25 -49.5q12 -16 33.5 -27.5t44.5 -11.5q16 0 30.5 8t22.5 29q4 12 7 27.5t3 29.5q0 20 -4 43.5t-12 46.5q-8 29 -19.5 56.5t-23.5 52.5q-10 20 -20 36 l-17 31q-23 -33 -43.5 -76t-28.5 -86l-4 -27q-2 -14 -2 -28z" />
<glyph unicode="N" horiz-adv-x="1421" d="M12 240q0 94 59.5 149t129.5 64q8 2 14 2h12q61 0 110.5 -39t55.5 -123q0 -55 -25.5 -81t-58.5 -26h-3h-3q-31 2 -57.5 29t-28.5 70v3v3q0 29 18.5 44t40.5 15q12 0 24.5 -4t23.5 -12q-14 35 -41 50t-56 15h-9q-5 0 -11 -2q-51 -8 -93 -52t-42 -105q0 -104 77.5 -160.5 t174.5 -56.5q162 0 253 120.5t111 266.5q2 18 3 37.5t1 37.5v645h-178v60h309l8 -16l459 -840v627v3v3q0 39 1 85t5 91q10 106 51.5 201.5t149.5 130.5q16 6 34.5 9t37.5 3q53 -2 98 -28.5t64 -84.5q4 -12 6 -24.5t2 -22.5q0 -57 -43 -93t-103 -36h-2h-1q-7 0 -13 2l-12 4 q-29 10 -53.5 35t-24.5 53q0 10 3 18.5t9 16.5q10 14 23.5 20.5t27.5 6.5q4 0 9.5 -1t9.5 -1q29 -8 53.5 -30t30.5 -48q14 12 20 27.5t6 29.5v4v4q-4 25 -20.5 46.5t-40.5 31.5q-12 4 -25.5 7t-29.5 3q-12 0 -24.5 -2t-25.5 -6q-84 -27 -116.5 -105.5t-40.5 -166.5 q-4 -43 -5 -85t-1 -79v-10v-12v-963h-47l-551 1008v-130v-131v-130v-130q0 -14 -1 -28.5t-1 -28.5q-16 -174 -125 -318.5t-301 -144.5q-121 0 -216.5 73t-95.5 202z" />
<glyph unicode="O" horiz-adv-x="1153" d="M2 598q0 231 153.5 421.5t401.5 190.5q246 0 400.5 -189.5t154.5 -422.5q0 -231 -154.5 -420.5t-400.5 -189.5t-400.5 189.5t-154.5 420.5zM160 571q4 -98 32.5 -194t86.5 -174q59 -78 130.5 -118t147.5 -40t148.5 40t130.5 118q59 84 90 187q29 97 28 197v13v12v13 q-4 98 -32.5 194t-85.5 174q-53 74 -125 117t-154 43t-153.5 -43t-124.5 -117q-59 -82 -91 -185q-29 -97 -28 -198v-14v-12v-13z" />
<glyph unicode="P" horiz-adv-x="993" d="M6 770q0 201 136.5 336t336.5 137q37 49 83 91t97 75l31 -49q-20 -14 -40.5 -38t-37.5 -48q-8 -8 -14 -18.5t-12 -18.5q174 -16 278.5 -109.5t104.5 -277.5q0 -168 -113 -246t-258 -78q-14 0 -27.5 1t-25.5 1l-28 4l-28 5v-181q49 0 97.5 12.5t91.5 37.5l29 -52 q-49 -27 -104.5 -42t-113.5 -15v-238h142v-59h-443v59h148v263q-141 49 -235.5 171.5t-94.5 276.5zM68 772q0 -119 65.5 -226.5t202.5 -160.5v305q0 129 19.5 255t82.5 237q-180 -18 -275 -141.5t-95 -268.5zM485 821q0 -29 1 -56.5t1 -55.5q0 -27 1 -54.5t1 -52.5l40 -4 q19 -2 38 -2q84 0 145.5 40t82.5 140q4 25 7 48.5t3 45.5q0 115 -63.5 199t-194.5 105q-39 -76 -50.5 -167.5t-11.5 -185.5z" />
<glyph unicode="Q" horiz-adv-x="1159" d="M4 598q0 231 152.5 421.5t400.5 190.5t401.5 -189.5t153.5 -422.5q0 -199 -113.5 -371t-312.5 -225q63 -23 124.5 -50.5t121.5 -57.5q4 0 6 -1.5t4 -3.5l180 -82q90 -41 185 -69q55 -16 107 -26.5t97 -10.5q76 0 133.5 36t84.5 122l57 -11v-7v-11q0 -143 -76 -204.5 t-186 -61.5q-43 0 -88 7t-93 23q-109 35 -207 90l-198 111q-2 0 -4 2t-6 4l-146 84q-74 41 -151 76q-14 6 -29.5 10t-32.5 6q-8 0 -15 1.5t-15 1.5h-3h-4q-94 -2 -171.5 -64.5t-77.5 -161.5v-4v-3l-58 -7v11v9q0 84 52.5 152t128.5 98q-186 59 -294 227t-108 361zM160 598 q0 -41 6 -86t16 -90q37 -141 129 -259t246 -118t247 118t130 259q10 45 16 90t6 86t-5 85t-17 89q-35 143 -128 262t-249 119q-154 0 -247 -119t-128 -262q-12 -45 -17 -89t-5 -85z" />
<glyph unicode="R" horiz-adv-x="1153" d="M6 780q0 195 130 325t321 136q37 51 83 93t99 75l31 -49q-20 -14 -39 -36l-37 -44q-6 -10 -14.5 -20.5t-14.5 -20.5q160 -16 261.5 -104t101.5 -263q0 -113 -67.5 -175t-166.5 -91q29 -16 52.5 -40.5t39.5 -53.5l169 -290l167 -288q2 -4 5 -9t8 -9q23 -35 53.5 -64.5 t68.5 -39.5q8 -2 15.5 -3.5t13.5 -1.5q51 0 88 42t47 92q2 6 3 12t1 12l60 -6q-8 -96 -81 -163q-71 -65 -163 -64h-6h-9h-9q-76 6 -141.5 49t-104.5 108l-60 102l-61 101l-122 206q-60 103 -114 210q-10 20 -34.5 36.5t-51.5 26.5q-14 4 -28.5 7.5t-26.5 3.5h-1h-2h-1v-226 q14 0 25.5 1t17.5 1q8 0 14 1t11 1l20 -55l-34 -4q-17 -2 -34 -2h-5h-5h-5h-5v-240h141v-59h-442v59h147v273q-131 55 -220 180t-89 268zM68 776q4 -113 65.5 -216t181.5 -163v312q0 125 19.5 245.5t81.5 225.5q-174 -23 -262 -138q-86 -112 -86 -247v-6.5v-7.5v-5zM467 764 q0 -14 2 -29v-48v-46q135 0 214 55.5t79 198.5q0 115 -64.5 185.5t-173.5 90.5q-33 -68 -45 -147.5t-12 -159.5v-15v-15v-20v-19v-31z" />
<glyph unicode="S" horiz-adv-x="806" d="M4 279v9v9q0 41 12.5 78t38.5 69q29 35 65 51.5t75 16.5q49 -2 91 -31.5t52 -91.5q2 -6 2 -12v-10q0 -49 -31 -85q-29 -34 -69 -34h-4q-8 0 -15.5 1t-13.5 3q-8 4 -15.5 7t-15.5 9q-23 16 -33 35t-10 37q0 27 18.5 44t47.5 17q14 0 28.5 -5t28.5 -15q8 -4 14 -10t11 -13 v1v3v4v1q0 43 -27 64.5t-61 21.5h-9q-4 0 -8 -2q-20 -2 -39.5 -13.5t-36.5 -29.5q-20 -25 -29.5 -53.5t-9.5 -59.5v-9v-10q6 -63 44 -119.5t94 -82.5q39 -18 82 -27.5t88 -9.5q92 0 165.5 48t73.5 161q0 109 -71.5 188.5t-157.5 153.5l-5 5q-3 3 -7 5q-92 78 -166 165 t-74 210q0 127 88 192.5t197 65.5h11h11q49 -4 97.5 -21.5t86.5 -50.5v39h60v-313h-60v186q-27 43 -71.5 66.5t-93.5 27.5q-6 2 -12 2h-11q-63 0 -113.5 -37.5t-50.5 -119.5q0 -78 43 -131.5t97 -100.5q2 -2 4 -5t6 -5q12 -10 23 -22l24 -23q18 -20 39 -40l41 -40q2 -2 4 -3 t4 -3q78 -76 143.5 -159t65.5 -206q0 -145 -114 -215.5t-249 -74.5h-11h-11q-53 0 -105.5 9t-95.5 29q-72 33 -119 106t-51 153z" />
<glyph unicode="T" horiz-adv-x="1040" d="M4 840v11v11q0 14 1 26.5t3 24.5q20 127 122.5 199t221.5 92q25 4 49.5 6t47.5 2h126q63 0 127 -2q29 -2 55.5 -3t53.5 -1q20 0 38.5 1t35.5 3q47 6 76.5 31t29.5 78v13q0 7 -2 16l60 8q0 -6 1 -11.5t1 -9.5v-9v-9v-12v-13v-9v-9q0 -94 -46.5 -131t-123.5 -45h-12h-9 q-4 -2 -9 -2h-11l-58 4l-57 4q-14 0 -28.5 2t-28.5 2v-1049h143v-59h-442v59h147v1061q-8 0 -17.5 1t-17.5 1q-8 2 -17 2h-18h-8q-4 0 -8 2h-10h-8q-18 0 -37 -1t-37 -5q-104 -14 -190.5 -76.5t-86.5 -175.5v-3v-3q2 -76 48.5 -140.5t130.5 -64.5q10 0 19 3.5t17 7.5 q-23 6 -43 28.5t-24 46.5q-2 2 -2 6v7q0 10 3 19t9 18q10 10 21.5 15t25.5 5q4 0 9.5 -1t9.5 -3q10 -2 19 -6t18 -12q20 -16 29 -37t9 -45q0 -41 -25.5 -69t-66.5 -38q-8 -2 -15 -3t-17 -1h-9q-4 0 -8 2q-41 4 -81 25.5t-68 52.5q-31 35 -46.5 77t-19.5 85z" />
<glyph unicode="U" horiz-adv-x="1390" d="M8 788q0 39 9.5 78t25.5 78q53 119 164.5 183.5t236.5 64.5h181h180v-59h-256v-713q133 18 220 110.5t87 217.5v21q0 11 -2 22l59 16q0 -6 1 -12.5t1 -12.5q2 -8 3 -14v-12q-2 -150 -106.5 -261.5t-262.5 -134.5q0 -76 12 -136t78 -115q41 -33 91 -49.5t101 -16.5h6h7 q117 6 214 83t97 202v402v403h-121v59h326v-59h-146v-403v-402q0 -143 -110.5 -235.5t-241.5 -106.5q-4 -2 -7 -2h-5q-6 0 -11 -1t-12 -1h-11h-11q-168 0 -288 102t-120 278q-160 29 -274.5 149.5t-114.5 276.5zM68 797q0 -33 8 -69t24 -73q41 -90 122 -150.5t175 -80.5v706 q-139 -12 -234 -107t-95 -226z" />
<glyph unicode="V" horiz-adv-x="1044" d="M2 1133v59h379v-59h-92l346 -916q37 66 70 131l65 131l66 132q33 67 69 132q23 41 35 89.5t12 99.5q0 61 -20.5 117.5t-67.5 95.5q-37 29 -79 43t-87 14q-51 0 -99 -19.5t-85 -60.5q-16 -16 -24.5 -35.5t-10.5 -37.5q-2 -6 -2 -12v-9h3q1 0 3 2h4h5q31 -2 57 -27.5 t35 -56.5q0 -2 1 -6t1 -8v-3v-5q0 -27 -17.5 -44.5t-42.5 -17.5q-6 0 -13 2t-15 4l-2 2q-27 10 -45.5 37t-20.5 56q-6 16 -9 33.5t-3 33.5q0 90 74.5 153.5t164.5 76.5q6 0 11.5 1t11.5 1h9h9q53 0 105.5 -17.5t97.5 -52.5q57 -45 83 -113.5t26 -142.5q0 -57 -14.5 -114.5 t-39.5 -104.5l-391 -760l-444 1176h-119z" />
<glyph unicode="W" horiz-adv-x="1646" d="M8 1133v59h443v-59h-132l273 -863l190 451q-39 88 -69.5 179t-30.5 187q0 12 1 25.5t3 26.5q8 68 45 125t115 57q29 -2 56.5 -18.5t45.5 -49.5q20 -33 28.5 -65.5t8.5 -67.5q0 -57 -19.5 -112.5t-43.5 -110.5q-6 -12 -11.5 -26.5t-11.5 -26.5l275 -594l245 883h-143v59 h346v-59h-141l-336 -1176l-328 694l-299 -704l-356 1186h-154zM801 1188q0 -23 3 -47.5t9 -50.5q4 -20 9 -40t12 -38l21 -67q9 -28 11 -30q2 2 3 5.5t3 7.5q14 31 26.5 65.5t21.5 69.5l4 30q2 15 2 29q0 27 -6.5 51.5t-20.5 49.5q-12 18 -25.5 28.5t-29.5 10.5 q-23 -2 -33 -22.5t-10 -51.5z" />
<glyph unicode="X" horiz-adv-x="1398" d="M2 256q0 51 18.5 98t57.5 84q29 27 60 39q27 11 55 11q5 0 10 -1q76 0 136 -53t60 -135v-10q0 -6 -2 -13q-4 -43 -30.5 -67.5t-61.5 -24.5q-6 0 -12 1t-12 3q-12 4 -24.5 13.5t-25.5 21.5q-14 16 -20 33.5t-6 32.5q2 29 19.5 45t41.5 14q6 0 12.5 -1t12.5 -3 q12 -4 25.5 -13t23.5 -26q-4 53 -46 89t-91 36q-23 0 -45.5 -8t-40.5 -27q-29 -27 -43.5 -63.5t-14.5 -77.5v-5v-7q4 -76 58.5 -140.5t138.5 -64.5q72 0 131 30.5t98 92.5l136 209l137 211l-307 553h-146v59h440v-59h-120l227 -410l264 410h-119v59h312v-59h-123l-303 -467 l334 -607h155v-59h-442v59h117l-256 461l-128 -196l-128 -197q-41 -63 -103.5 -100t-130.5 -45q-8 0 -17.5 -1t-19.5 -1q-76 0 -142.5 39.5t-101.5 127.5q-8 27 -13 54.5t-5 54.5z" />
<glyph unicode="Y" horiz-adv-x="1079" d="M-6 1133v59h442v-59h-121l349 -1043q55 78 104 164t90 172q31 66 55.5 131.5t42.5 128.5q10 35 17.5 74t13.5 80q2 20 3 40.5t1 39.5q0 106 -47 185t-178 79q-76 0 -127 -56.5t-51 -123.5v-4v-3q0 -27 8 -53t29 -49l-45 -39q-23 27 -35.5 56.5t-14.5 60.5q-2 6 -2 12v12 q0 92 68 169t172 77q162 0 222 -98q58 -95 59 -219q0 -28 -1 -49q-1 -20 -4 -43q-4 -41 -12 -82t-20 -80q-18 -66 -44 -134.5t-59 -136.5q-78 -170 -189.5 -329.5t-238.5 -272.5q-6 -6 -12 -11t-14 -9q-39 -31 -85 -58.5t-94 -39.5q-8 -2 -17 -4.5t-19 -2.5h-9h-8 q-10 0 -19 1t-20 1q-72 8 -130 50.5t-58 119.5v1v2v1q2 57 28.5 83t61.5 30q6 2 11 2h12q23 0 41 -5t26 -13q16 -14 29.5 -33.5t17.5 -42.5v-6v-6q0 -14 -5 -26.5t-17 -22.5q-8 -8 -16.5 -11.5t-18.5 -1.5h-7q-3 0 -5 2q-25 4 -45.5 23.5t-32.5 42.5q-4 4 -6 10l-4 12 q-6 -8 -9.5 -18t-3.5 -23q0 -6 1 -12t3 -12q10 -35 49 -63q36 -26 103 -25h10h9h10q12 0 25 3t26 9q31 10 59.5 28.5t54.5 39.5q10 8 20.5 15t18.5 15q29 23 55 50l52 55l-397 1184h-158z" />
<glyph unicode="Z" horiz-adv-x="1271" d="M2 154q0 16 4 33.5t10 33.5q27 63 91.5 87t134.5 26h6h4h11h9q33 -2 64 -6t55 -11l447 816h-570v-226h-59v285h825l-506 -934l54 -30l51 -29l49 -32l47 -30l25 -16l26 -17q49 -31 104 -57q50 -25 103 -25q4 0 8 1h12h9q78 8 124 65t46 133q0 66 -32 125.5t-85 97.5l43 50 q59 -45 94 -113t39 -139v-6v-9q0 -53 -20.5 -105t-67.5 -93q-39 -33 -85 -48.5t-93 -15.5q-33 0 -66.5 7.5t-64.5 21.5q-35 14 -74 39.5l-84 52.5q-10 8 -22 15l-23 14q-35 23 -71.5 44l-75.5 42q-10 -20 -21.5 -40t-21.5 -40q-33 -59 -95.5 -100t-132.5 -50q-6 -2 -13 -2 h-15q-37 0 -73 11.5t-65 37.5q-29 27 -44 62t-15 74zM61 150q0 -43 32 -79t75 -42h3h3h4h4q41 0 61.5 26.5t37.5 57.5q2 2 3 5t1 5q4 4 6 9t4 9l34 62l33 61q-23 4 -52 7t-60 3h-5h-7q-66 -2 -121.5 -27t-55.5 -97z" />
<glyph unicode="[" />
<glyph unicode="\" horiz-adv-x="557" d="M18 1358h99l393 -1727h-96z" />
<glyph unicode="]" />
<glyph unicode="^" />
<glyph unicode="_" />
<glyph unicode="`" horiz-adv-x="448" d="M92 1405l33 49l227 -151l-33 -50z" />
<glyph unicode="a" horiz-adv-x="579" d="M12 233q0 43 14.5 84t43.5 74q29 35 67.5 52.5t77.5 17.5q29 0 55.5 -9.5t51.5 -25.5v23h70h69v-185v-184q0 -4 3 -7t7 -3q2 0 3 1t3 1q12 8 19.5 22.5t7.5 28.5h57q0 -55 -38 -88t-85 -33q-27 0 -51.5 12.5t-42.5 38.5q-29 -27 -61 -40q-28 -12 -59 -11h-9 q-39 0 -78 17.5t-67 50.5q-29 35 -44 76q-14 37 -14 77v10zM164 229q0 -33 7 -63.5t22 -54.5q14 -20 28.5 -30.5t28.5 -10.5q18 0 36.5 13t35.5 34v229q-10 14 -24.5 25.5t-31.5 19.5q-4 2 -8 3t-8 1q-18 -2 -32.5 -14t-24.5 -29q-14 -27 -21.5 -57.5t-7.5 -65.5z" />
<glyph unicode="b" horiz-adv-x="507" d="M2 236v813q0 66 45 104.5t98 38.5q27 0 52.5 -9t46.5 -32l-41 -43q-12 12 -25.5 18.5t-30.5 6.5h-3h-3v-693q6 2 10.5 4t10.5 5q10 2 20.5 5t20.5 3q2 2 3 2h1q10 2 17 2h16q96 0 167.5 -66.5t71.5 -163.5q0 -113 -75.5 -171t-165.5 -58q-88 2 -162 59.5t-74 174.5z M141 145q0 -27 16.5 -49t43.5 -33h4h4q2 -2 4 -2h4h3q19 0 32.5 11.5t23.5 25.5q18 29 27.5 64t9.5 69q0 35 -9 70t-28 61q-10 16 -23 26.5t-32 10.5h-2h-1q-22 -2 -41 -9t-36 -17v-228z" />
<glyph unicode="c" horiz-adv-x="434" d="M4 233v14q0 7 2 15q4 35 21.5 69t48.5 62q35 35 80 51.5t90 16.5h12q6 0 14 -2q6 0 12.5 -1t12.5 -3q8 -2 17.5 -4t17.5 -7l21.5 -9t19.5 -11q14 -10 22 -21.5t13 -23.5q2 -6 3 -11.5t1 -11.5q0 -27 -19.5 -46t-48.5 -19q-8 0 -17.5 2t-19.5 6q-4 2 -9 5t-9 7 q-16 10 -27.5 29.5t-11.5 40.5v8q0 4 2 8q-39 -10 -58.5 -58t-21.5 -103v-3v-4q0 -63 24.5 -115.5t71.5 -52.5q12 0 24 5l21 8q12 8 24.5 21.5t27.5 31.5l49 -33q-33 -47 -72 -70.5t-98 -23.5q-106 0 -173 72.5t-67 160.5z" />
<glyph unicode="d" horiz-adv-x="575" d="M0 231q0 90 61 161q60 69 139 69h5q12 0 24.5 -2t26.5 -4q12 -4 24.5 -10.5t24.5 -14.5v310v309q0 66 45 104.5t99 38.5q27 0 52 -9t46 -32l-41 -43q-10 10 -24.5 17.5t-30.5 7.5h-4h-3v-526v-527q0 -10 7.5 -9t15.5 7q6 6 12 16t8 21v4v4h58q0 -55 -38 -88t-85 -33h-8 q-4 0 -8 2q-20 2 -40 13.5t-36 31.5q-29 -27 -60.5 -38t-64.5 -11q-80 2 -142.5 69.5t-62.5 161.5zM152 231q0 -37 8 -67.5t22 -52.5q0 -2 1 -3l3 -4q8 -12 22.5 -24t31.5 -12h4q2 0 4 2q2 0 4 1t4 1q14 6 26.5 16t22.5 21v243q-18 23 -35 32q-13 8 -26 8l-6 -1 q-35 0 -57.5 -41t-26.5 -90q-2 -8 -2 -15v-14z" />
<glyph unicode="e" horiz-adv-x="452" d="M8 229q2 90 68.5 160t173.5 72h3h3q53 -2 97 -26.5t53 -82.5v-4v-4v-4v-4q0 -61 -46.5 -99t-103.5 -59q-16 -6 -33 -11l-30 -9l-7 -2q2 -8 5.5 -16.5t5.5 -16.5q10 -25 25.5 -44.5t41.5 -17.5h3h3q35 4 67 22.5t54 45.5l45 -37q-37 -45 -88 -68.5t-104 -23.5h-13 q-6 0 -12 2q-37 4 -72.5 20.5t-66.5 45.5q-37 35 -54.5 76.5t-17.5 84.5zM176 215l33 9q18 5 37 14q39 14 69.5 38.5t30.5 61.5v4v4q-2 25 -20.5 37t-38.5 14q-4 2 -9 2h-10q-33 0 -53 -32.5t-29 -71.5q-6 -20 -8 -39.5t-2 -34.5v-3v-3z" />
<glyph unicode="f" horiz-adv-x="288" d="M0 401v60h68v295v293q0 66 45 104.5t98 38.5q27 0 52.5 -9t45.5 -32l-41 -43q-10 10 -24.5 17.5t-30.5 7.5h-3h-3l2 -672h70v-60h-70v-862h-141v862h-68z" />
<glyph unicode="g" horiz-adv-x="475" d="M-2 231q0 90 59.5 161t141.5 71q27 0 52 -9.5t52 -25.5v8v8v9v8h139v-776q0 -63 -45 -102.5t-98 -39.5q-27 0 -51.5 9.5t-46.5 31.5l41 41q10 -8 25.5 -15t29.5 -7h3h3v430q-27 -16 -52.5 -24.5t-51.5 -8.5q-82 0 -141.5 69.5t-59.5 161.5zM147 229q0 -33 8.5 -63.5 t22.5 -54.5q14 -23 30 -33q13 -9 25 -9q2 0 5 1q16 0 33.5 11t31.5 30v239q-16 20 -33.5 31.5t-36.5 11.5q-14 0 -27 -9t-28 -32q-14 -27 -22.5 -57.5t-8.5 -65.5z" />
<glyph unicode="h" horiz-adv-x="557" d="M0 0v1049q0 66 45 104.5t100 38.5q27 0 52.5 -9t46.5 -32l-43 -43q-10 10 -23.5 17.5t-30.5 7.5h-3h-3v-738q29 29 69 47.5t81 18.5h3h3q51 -2 95 -36t44 -91v-260q2 -2 3 -2t1 -2q8 0 14.5 8t12.5 18q4 10 6 17.5t2 9.5h60q0 -59 -38 -89t-85 -30q-45 0 -82 29.5 t-37 89.5v242q0 16 -11.5 23t-25.5 7h-5q-3 0 -7 -2q-2 2 -11 -3l-18 -11l-2 -2l-2 -2q-8 -4 -15.5 -9.5t-9.5 -7.5q-20 -18 -32.5 -41.5t-12.5 -48.5v-268h-141z" />
<glyph unicode="i" horiz-adv-x="276" d="M-8 713q0 39 25.5 65.5t64.5 26.5q37 0 63.5 -26.5t26.5 -65.5q0 -37 -26.5 -63.5t-63.5 -26.5q-39 0 -64.5 26.5t-25.5 63.5zM12 123v326h140v-369q0 -4 3 -7t7 -3q2 0 3 1l1 1q12 10 19.5 23.5t7.5 27.5h59q0 -51 -36 -86t-85 -35t-84 35t-35 86z" />
<glyph unicode="j" horiz-adv-x="186" d="M-82 -416l41 41q8 -4 14.5 -9t14.5 -7q8 -4 14 -5t14 -1h2v858h142v-776q0 -27 -11.5 -53.5t-31.5 -45.5q-18 -20 -44 -31.5t-57 -11.5q-14 0 -26.5 3t-24.5 8q-14 6 -25.5 13t-21.5 17zM-2 713q0 39 25.5 65.5t62.5 26.5q39 0 65.5 -26.5t26.5 -65.5q0 -37 -26.5 -63.5 t-65.5 -26.5q-37 0 -62.5 26.5t-25.5 63.5z" />
<glyph unicode="k" horiz-adv-x="546" d="M0 0v1049q0 66 45 104.5t98 38.5q27 0 52.5 -9t46.5 -32l-41 -43q-10 10 -24.5 17.5t-31.5 7.5h-3h-3v-748q31 35 72 54.5t84 19.5q8 0 15 -1t16 -1q16 -4 31.5 -9.5t29.5 -15.5q18 -10 31.5 -30.5t17.5 -43.5v-5v-5v-6q0 -4 -2 -6q0 -6 -2 -12.5t-6 -12.5 q-8 -14 -21.5 -21t-27.5 -7h-5h-5q-31 6 -55.5 32.5t-24.5 61.5q0 6 1 12t3 12h-3h-3q-39 0 -70 -22.5t-53 -54.5q98 -12 172 -79t90 -167l4 -4q2 -2 4 -2q0 -2 2 -2h2q8 2 14.5 11t10.5 19q2 6 3 12.5t1 10.5h59q0 -57 -37.5 -89t-85.5 -32q-33 0 -60.5 17.5t-43.5 50.5 q-6 14 -14 27l-17 28q-23 41 -54.5 78t-70.5 55v-258h-141z" />
<glyph unicode="l" horiz-adv-x="272" d="M2 123v926q0 59 43 101t100 42q29 0 54.5 -10.5t46.5 -30.5l-43 -43q-8 10 -22.5 17.5t-30.5 7.5h-4h-3v-1053q0 -4 3.5 -7t7.5 -3q2 0 3 1l1 1q12 10 19 23.5t7 27.5h60q0 -51 -36 -86t-85 -35t-85 35t-36 86z" />
<glyph unicode="m" horiz-adv-x="874" d="M8 340q0 57 39 89t84 32q31 0 59.5 -16.5t45.5 -51.5q29 29 66.5 48.5t76.5 19.5q29 0 54.5 -11.5t45.5 -35.5q23 18 50.5 30.5t58.5 14.5q4 2 9 2h9q53 0 98.5 -34t45.5 -93v-256q0 -4 3 -7t7 -3q2 0 3 1l1 1q12 10 19.5 22t7.5 29h59q0 -51 -36 -86t-85 -35t-85 35 t-36 86v244q0 16 -11 23t-26 7h-5q-3 0 -7 -2q0 2 -8 -3t-21 -11q0 -2 -1 -2q-11 -6 -18 -12l-7 -7q2 -4 3 -10t1 -14v-334h-143v365q0 12 -5.5 21t-15.5 9h-3q-1 0 -5 -2q-29 -10 -53.5 -35.5t-34.5 -58.5v-299h-139v383v1q0 1 -3 3q0 2 -3 4t-7 2h-1q-1 -2 -2 -2h-1 q-12 -8 -19 -21.5t-7 -29.5h-58z" />
<glyph unicode="n" horiz-adv-x="659" d="M0 340q0 55 37 87t82 34h3h3q33 0 62.5 -17.5t43.5 -56.5q18 20 41 35.5t47 23.5q16 6 35 10.5t37 4.5q27 0 52.5 -9.5t45.5 -25.5t33 -40t13 -52v-254v-1q0 -5 1 -7t7 -2q8 0 15 9t9 19q4 8 5 14.5t1 10.5h60q0 -51 -36 -86t-85 -35t-85 35t-36 86v242q0 16 -11 23 t-26 7h-5q-3 0 -7 -2q-2 2 -10 -3l-17 -11q-2 0 -3 -1l-3 -3q-8 -4 -14 -9.5t-8 -7.5q-16 -14 -28.5 -32.5t-16.5 -38.5v-287h-142v383v1v3q-2 0 -4 2t-2 4h-3h-2h-1q0 -2 -1 -2q-13 -8 -20.5 -21.5t-7.5 -29.5h-59z" />
<glyph unicode="o" horiz-adv-x="450" d="M4 225v3v3q0 86 56.5 158t148.5 72t148.5 -72t56.5 -158v-3v-3q-2 -84 -58.5 -154.5t-146.5 -70.5t-146.5 70.5t-58.5 154.5zM166 231q0 -12 1 -27.5t3 -29.5q6 -37 24.5 -67.5t59.5 -30.5q16 0 31.5 10t25.5 23q18 20 28.5 44.5t12.5 49.5q2 6 2 12v12q-2 63 -33 113 q-30 47 -70 47h-3q-4 0 -9.5 -1t-9.5 -3q-10 -4 -19 -11t-17 -22q-12 -18 -19.5 -48t-7.5 -71z" />
<glyph unicode="p" horiz-adv-x="460" d="M0 -459v1010h24h23h48h46v-117l24 11l23 10l24 4q11 2 24 2q41 0 78.5 -17.5t66.5 -52.5q29 -33 44 -75q14 -37 14 -76q0 -5 -1 -11q0 -43 -14 -84t-43 -75q-29 -33 -68 -50.5t-80 -17.5q-8 0 -15 1t-15 1q-16 4 -31.5 10t-30.5 15v-488h-141zM141 102q16 -14 31.5 -24 t30.5 -10q14 0 27.5 10t27.5 33q12 20 19.5 46.5t9.5 55.5v9v9v10v9q-2 29 -9.5 55.5t-19.5 46.5q0 2 -1 3l-3 3q-10 12 -24.5 24.5t-30.5 12.5h-4q-2 0 -2 -2q-2 0 -4.5 -1t-4.5 -1q-12 -6 -22 -14t-21 -19v-256z" />
<glyph unicode="q" horiz-adv-x="499" d="M2 233q0 43 14.5 84t42.5 74q29 35 68 52.5t78 17.5q27 0 52.5 -8.5t49.5 -24.5v33h142v-286v-286v-143v-143h3h3q16 0 29.5 7t23.5 17l43 -45q-20 -20 -46 -29.5t-54 -9.5q-53 0 -98.5 39t-45.5 105v87v87v87v85q-25 -16 -50.5 -24.5t-53.5 -8.5q-39 0 -77 18.5 t-67 51.5q-29 35 -44 76q-14 37 -13 77v10zM152 213q2 -29 10 -55.5t20 -46.5q14 -23 30 -33q13 -9 25 -9q2 0 5 1q16 0 33.5 11t31.5 30v239q-10 14 -21.5 23.5t-23.5 13.5q-6 4 -11 5t-11 1q-14 0 -28.5 -9t-29.5 -32q-12 -20 -20 -46.5t-10 -55.5v-9v-10v-9v-9z" />
<glyph unicode="r" horiz-adv-x="479" d="M6 340q0 55 38 88t83 33q20 0 39.5 -6t36.5 -23q25 14 49 21.5t51 7.5t51.5 -7.5t46.5 -21.5q18 -10 31.5 -30.5t18.5 -43.5v-5v-5q0 -12 -3.5 -23.5t-13.5 -21.5q-8 -10 -20.5 -15t-24.5 -5l-19.5 4t-19.5 8q-18 10 -31.5 30.5t-17.5 43.5v5v5v6q0 2 2 6q0 2 1 5t1 5h-3 h-1h-3h-3q-6 0 -13.5 -1t-15.5 -3t-15 -5t-13 -7q4 -10 6 -21.5t2 -23.5v-340h-140v383v1v3q-2 0 -4 2t-2 4h-3h-1h-1q-1 -2 -2 -2h-1q-12 -8 -19 -21.5t-7 -29.5h-60z" />
<glyph unicode="s" horiz-adv-x="395" d="M6 119v5v5q0 27 15.5 46.5t44.5 21.5h3h3q35 0 61.5 -30t28.5 -65v-3v-3v-8q0 -4 -2 -8q0 -4 -2 -8l-4 -9q8 -2 17 -3t17 1h8h5q10 2 19 4.5t16 6.5q4 2 6 5t4 5q0 2 1 5t1 5q0 8 -14.5 22.5t-32.5 30.5q-4 2 -7.5 5.5t-7.5 5.5q-16 14 -31 25l-24 18q-8 6 -15 12t-16 10 q-33 27 -57.5 54.5t-24.5 62.5q0 47 37 76.5t82 40.5q12 4 23.5 5t21.5 1t20.5 -1t20.5 -1q39 -6 74 -26.5t45 -61.5q0 -2 1 -5.5t1 -5.5v-5v-5q0 -27 -14.5 -46t-42.5 -21h-2q-35 0 -60.5 28.5t-27.5 61.5v3v3v5q0 3 2 5q0 2 1 5t1 5h-4q-2 0 -4 2h-5h-6h-5h-7 q-14 -2 -26.5 -9t-12.5 -19q0 -6 14.5 -19.5t32.5 -27.5q2 -4 5 -6.5t7 -4.5q14 -12 29 -22l23 -17q47 -33 85 -66.5t38 -80.5q0 -49 -38 -80t-83 -43q-14 -2 -26.5 -4t-24.5 -2v2h-4h-3q-14 0 -28.5 2t-28.5 6q-41 10 -76 34t-45 62q0 4 -1 6.5t-1 6.5z" />
<glyph unicode="t" horiz-adv-x="327" d="M2 401v60h57v344h142v-344h94v-60h-94v-79v-80v-81v-81q0 -2 2 -5t6 -3q2 -2 3 -2t3 2q12 8 19.5 22.5t7.5 28.5h59q0 -51 -36 -86t-85 -35t-85 35t-36 86v278h-57z" />
<glyph unicode="u" horiz-adv-x="567" d="M4 127v334h143v-365q0 -12 9.5 -19t21.5 -9h1h3h4h4l3 1q2 1 4 1q29 10 53 30.5t39 46.5v314h143v-381v-1v-3v-3v-1q4 -2 5 -3t3 1h1q1 2 2 2h1q14 6 20.5 20t6.5 29h59q0 -55 -37.5 -88t-84.5 -33q-31 0 -60 16.5t-45 51.5q-31 -29 -72 -49q-37 -18 -75 -17h-9 q-27 0 -52 8t-48 27q-20 16 -31.5 39.5t-11.5 50.5z" />
<glyph unicode="v" horiz-adv-x="438" d="M4 172v289h141v-352q0 -23 12.5 -35.5t37.5 -12.5h12q6 0 12 2q16 2 33.5 9.5t30.5 19.5q29 25 40 60.5t11 74.5q0 25 -4 49.5t-11 45.5q-8 -6 -16 -8.5t-18 -2.5q-4 0 -9.5 1t-9.5 1q-6 2 -11 4t-9 5q-20 12 -34.5 35.5t-14.5 50.5q2 12 6 23t12 22q10 10 21.5 14 t23.5 4h7q3 0 7 -2q10 -2 20.5 -7t18.5 -13l4 -5l5 -4q2 -2 3 -4t3 -4q27 -33 45 -84t20 -106v-8v-7v-11v-9q-6 -78 -54 -141.5t-134 -63.5h-6h-6q-4 -2 -8 -2h-7q-31 2 -60.5 9t-51.5 24q-27 18 -44.5 52t-17.5 87z" />
<glyph unicode="w" horiz-adv-x="708" d="M0 127v334h141v-365q0 -14 11.5 -21t25.5 -7h4h4l2 1q2 1 5 1q8 0 17 5l19 11q10 8 19 16l16 17q10 12 16.5 21.5t10.5 17.5v4v4q-2 2 -2 3v3v289h143v-352q0 -23 12.5 -35.5t36.5 -12.5h6q29 2 49.5 10.5t34.5 20.5q29 25 40 61q10 30 10 62v12q0 25 -4.5 49.5 t-10.5 45.5q-4 -2 -8 -5.5t-8 -3.5q-6 -2 -10.5 -3t-8.5 -1q-27 2 -50 22.5t-32 45.5q0 2 -1 3t-1 3t-1 5t-1 5v5v5q0 27 15.5 46.5t42.5 21.5q23 0 40 -11t31 -28q29 -35 46.5 -85t19.5 -103v-8v-9q0 -51 -16.5 -99t-55.5 -81q-27 -23 -63.5 -35t-77.5 -12q-49 0 -92 19.5 t-66 60.5q-29 -33 -74 -56.5t-92 -23.5q-53 0 -98 35t-45 92z" />
<glyph unicode="x" horiz-adv-x="544" d="M2 340q0 53 38 87t83 34q14 0 27.5 -3t27.5 -12q18 -8 30.5 -21t22.5 -28q2 -4 5.5 -8t5.5 -8q20 29 53 50.5t67 27.5q6 2 14 2h15h15q6 0 12 -2q2 0 5 -1t5 -1q25 -8 46.5 -31t19.5 -51v-4v-6q-6 -27 -24.5 -37.5t-41.5 -10.5h-7h-7q-16 2 -31.5 9.5t-28.5 19.5 q-8 8 -13 18.5t-9 20.5q-16 -8 -30.5 -23.5t-22.5 -33.5l163 -244q4 6 7.5 12t3.5 13q2 2 2 6v6h59q0 -51 -38 -86t-85 -35q-14 2 -27.5 5t-25.5 9q-20 10 -32.5 24.5t-22.5 33.5q-2 2 -3 4t-4 4q-20 -29 -55 -50.5t-74 -27.5h-11h-9h-6h-6q-4 0 -7.5 1t-7.5 1h-3q-1 0 -3 2 q-27 6 -48 27.5t-21 50.5v3q0 1 2 3v3v3q6 27 24.5 38t38.5 11h8q4 0 8 -2q29 -4 51.5 -22.5t28.5 -44.5q16 10 30.5 24.5t23.5 32.5l-166 244l-8.5 -17.5t-4.5 -19.5h-59z" />
<glyph unicode="y" horiz-adv-x="466" d="M4 127v334h143v-365q0 -14 11.5 -21t25.5 -7h4h5l2 1q2 1 4 1q25 10 46 26.5t36 36.5v328h141v-776q0 -57 -42 -99.5t-101 -42.5q-27 0 -53.5 10.5t-47.5 30.5l43 41q10 -8 24.5 -15t28.5 -7h4h3v446q-27 -20 -63 -34.5t-73 -14.5q-27 0 -51 9t-47 28q-20 16 -31.5 39.5 t-11.5 50.5z" />
<glyph unicode="z" horiz-adv-x="415" d="M-10 336q6 25 13 47.5t24 40.5q12 14 25.5 21.5t27.5 9.5q6 2 13 3t13 1q12 0 25 -2l25 -4l22 -9l25 -8q4 -2 8 -3t6 -1q12 -4 24 -7l19 -5q4 -2 9 -2h10q10 0 17 3t13 11q4 2 8.5 7t8.5 12l45 -39l-195 -236q8 -4 16.5 -9t16.5 -11q4 -2 8 -5.5t8 -5.5q6 -2 11.5 -6 l11.5 -8q12 -8 25.5 -15t25.5 -7h5q3 0 5 2q2 0 5 1t5 3q6 4 11.5 12t7.5 16l57 -16q0 -4 -1 -9t-3 -9q-4 -45 -38 -76t-81 -31q-25 0 -46 7l-44 14q-2 2 -3 2h-1q-16 6 -31.5 11t-31.5 7q-6 2 -12 2h-9q-12 0 -19 -3t-14 -9q-4 -4 -8 -9.5t-10 -11.5l-47 37h2l53 67l60 72 l1 2q1 2 3 3l43 52l41 50q-6 4 -12.5 7t-10.5 7q-6 2 -12 6l-12 9q-4 2 -7.5 5t-7.5 5q-10 8 -20.5 13t-18.5 7h-3q-1 0 -3 2h-3h-3q-14 -2 -24.5 -11t-14.5 -23z" />
<glyph unicode="{" />
<glyph unicode="|" horiz-adv-x="147" d="M27 -614v2039h112v-2039h-112z" />
<glyph unicode="}" />
<glyph unicode="~" />
<glyph unicode="&#xa2;" horiz-adv-x="448" d="M20 631v13q0 7 3 15q4 35 21 69t48 63q23 23 52.5 38t62.5 23v227h57v-221q4 0 8 -1t9 -1q8 0 16 -1t16 -3t17.5 -5t17.5 -5q10 -4 21.5 -9.5t19.5 -11.5q14 -10 21.5 -21.5t11.5 -23.5q2 -6 3 -11t1 -11q0 -27 -19.5 -46.5t-48.5 -19.5q-8 0 -17 2t-19 6q-4 2 -9.5 5.5 t-9.5 7.5q-14 12 -26.5 31.5t-12.5 39.5v4v4l1 3q1 2 1 4q-39 -12 -59.5 -61.5t-18.5 -106.5v-3v-3q2 -61 26 -112.5t71 -49.5h7q3 0 7 2q8 0 15.5 3t13.5 7l13 9q7 5 13 12q6 8 13.5 16t13.5 16l47 -32q-31 -47 -68.5 -70t-95.5 -25v-209h-57v215q-84 18 -135.5 85 t-51.5 143z" />
<glyph unicode="&#xa3;" horiz-adv-x="917" d="M43 100q0 6 1 11.5t1 11.5q4 16 13.5 31.5t23.5 29.5q23 20 48.5 27.5t51.5 7.5q8 0 17.5 -1t17.5 -1q14 -2 27.5 -5t25.5 -7q4 0 8.5 -1t8.5 -3q4 39 4 76.5t-2 76.5v32v30v25v28q-2 12 -2 26v25h-135v60h133q-2 16 -2 31v32v40q0 19 2 40q6 141 57 259t199 118 q90 0 153.5 -62.5t63.5 -146.5q0 -14 -3 -29.5t-7 -32.5l-58 17l4 12q2 6 2 12q2 4 2 11v12q-2 47 -29.5 85t-72.5 54h-4h-4h-4h-4q-70 0 -100.5 -57t-41.5 -139q-2 -18 -3 -40t-3 -42v-21v-20q0 -35 1 -69t3 -62v-2h197v-60h-195v-46v-46v-34v-34q0 -57 -4 -107t-20 -91 q10 -4 19 -7t20 -8q16 -4 30 -9l31 -11l49.5 -15.5t48.5 -13.5q10 -2 22.5 -4t24.5 -2q47 0 88 25.5t54 77.5q4 20 9 40.5t9 40.5l58 -14l-5 -21l-4 -22q-4 -20 -6 -42l-4 -44q-8 -74 -64.5 -109.5t-121.5 -35.5h-14q-7 0 -13 2q-14 2 -27.5 5t-25.5 5q-41 14 -81 31.5 t-79 38.5l-28 12l-25 12q-33 -55 -86 -86t-119 -31q-57 0 -95 38t-36 85zM100 98q0 -27 22.5 -46t51.5 -19q45 0 69.5 31.5t32.5 70.5l3 3v3q-4 2 -10.5 3t-12.5 3q-10 4 -20 7l-21 4q-10 2 -18.5 3t-16.5 1q-16 -2 -31.5 -6t-27.5 -15q-6 -6 -11.5 -13t-7.5 -15 q0 -4 -1 -7.5t-1 -7.5z" />
<glyph unicode="&#xa5;" horiz-adv-x="1105" d="M51 1020v59h441v-59h-121l225 -410l266 410h-119v59h312v-59h-123l-279 -430h191v-60h-211v-41h211v-59h-211v-371h141v-59h-442v59h149v371h-196v59h196v19l-12 22h-184v60h151l-239 430h-146z" />
<glyph unicode="&#xa9;" />
<glyph unicode="&#xad;" horiz-adv-x="307" d="M14 424v135h279v-135h-279z" />
<glyph unicode="&#xae;" />
<glyph unicode="&#xb4;" horiz-adv-x="448" d="M94 1303l228 151l32 -49l-227 -152z" />
<glyph unicode="&#x2000;" horiz-adv-x="743" />
<glyph unicode="&#x2001;" horiz-adv-x="1486" />
<glyph unicode="&#x2002;" horiz-adv-x="743" />
<glyph unicode="&#x2003;" horiz-adv-x="1486" />
<glyph unicode="&#x2004;" horiz-adv-x="495" />
<glyph unicode="&#x2005;" horiz-adv-x="370" />
<glyph unicode="&#x2006;" horiz-adv-x="247" />
<glyph unicode="&#x2007;" horiz-adv-x="247" />
<glyph unicode="&#x2008;" horiz-adv-x="184" />
<glyph unicode="&#x2009;" horiz-adv-x="296" />
<glyph unicode="&#x200a;" horiz-adv-x="81" />
<glyph unicode="&#x2010;" horiz-adv-x="307" d="M14 424v135h279v-135h-279z" />
<glyph unicode="&#x2011;" horiz-adv-x="307" d="M14 424v135h279v-135h-279z" />
<glyph unicode="&#x2012;" horiz-adv-x="307" d="M14 424v135h279v-135h-279z" />
<glyph unicode="&#x2013;" horiz-adv-x="630" d="M8 424v135h606v-135h-606z" />
<glyph unicode="&#x2014;" horiz-adv-x="970" d="M0 465v135h975v-135h-975z" />
<glyph unicode="&#x2018;" horiz-adv-x="200" d="M6 1040q0 14 5 27.5t14 26.5l86 114l47 -34l-35 -48q4 0 7 -2t7 -4t7 -4t8 -4q16 -14 25 -32.5t9 -41.5q0 -14 -3 -27.5t-13 -25.5q-14 -18 -32.5 -27.5t-41.5 -9.5q-4 0 -9 1t-9 1q-10 2 -19.5 6.5t-17.5 10.5q-16 14 -25.5 33.5t-9.5 39.5z" />
<glyph unicode="&#x2019;" horiz-adv-x="200" d="M10 1120q0 14 4 27.5t13 26.5q14 18 33.5 27t39.5 9h10q5 0 9 -2q10 -2 19 -6t18 -10q16 -14 25 -32.5t9 -41.5q0 -14 -4 -27.5t-14 -25.5l-86 -115l-47 35l35 47q-4 0 -7.5 2t-7.5 4t-7 4t-7 5q-16 14 -25.5 33.5t-9.5 39.5z" />
<glyph unicode="&#x201c;" horiz-adv-x="382" d="M6 1040q0 14 5 27.5t14 26.5l86 114l47 -34l-35 -48q4 0 7 -2t7 -4t7 -4t8 -4q16 -14 25 -32.5t9 -41.5q0 -14 -3 -27.5t-13 -25.5q-14 -18 -32.5 -27.5t-41.5 -9.5q-4 0 -9 1t-9 1q-10 2 -19.5 6.5t-17.5 10.5q-16 14 -25.5 33.5t-9.5 39.5zM190 1040q0 14 5.5 27.5 t13.5 26.5l86 114l47 -34l-35 -48q4 0 7 -2t8 -4q4 -2 7 -4t7 -4q16 -14 25.5 -32.5t9.5 -41.5q0 -14 -3 -27.5t-14 -25.5q-14 -18 -32.5 -27.5t-40.5 -9.5q-4 0 -9.5 1t-9.5 1q-10 2 -19.5 6.5t-17.5 10.5q-16 14 -25.5 33.5t-9.5 39.5z" />
<glyph unicode="&#x201d;" horiz-adv-x="382" d="M10 1120q0 14 4 27.5t13 26.5q14 18 33.5 27t39.5 9h10q5 0 9 -2q10 -2 19 -6t18 -10q16 -14 25 -32.5t9 -41.5q0 -14 -4 -27.5t-14 -25.5l-86 -115l-47 35l35 47q-4 0 -7.5 2t-7.5 4t-7 4t-7 5q-16 14 -25.5 33.5t-9.5 39.5zM195 1120q0 14 4 27.5t12 26.5 q14 18 33.5 27t40.5 9h9q5 0 9 -2q10 -2 19.5 -6t17.5 -10q16 -14 25.5 -32.5t9.5 -41.5q0 -14 -4 -27.5t-15 -25.5l-86 -115l-47 35l35 47q-4 0 -7 2t-7 4t-7.5 4t-7.5 5q-16 14 -25 33.5t-9 39.5z" />
<glyph unicode="&#x2022;" horiz-adv-x="415" d="M20 623q0 78 55.5 133t133.5 55t133 -55.5t55 -133t-55 -132t-133 -54.5t-133.5 54.5t-55.5 132.5z" />
<glyph unicode="&#x2026;" />
<glyph unicode="&#x202f;" horiz-adv-x="296" />
<glyph unicode="&#x205f;" horiz-adv-x="370" />
<glyph unicode="&#x2122;" />
<glyph unicode="&#xe000;" horiz-adv-x="460" d="M0 460h460v-460h-460v460z" />
<glyph unicode="&#xfb01;" horiz-adv-x="565" d="M281 713q0 39 25.5 65.5t64.5 26.5q37 0 63.5 -26.5t26.5 -65.5q0 -37 -26.5 -63.5t-63.5 -26.5q-39 0 -64.5 26.5t-25.5 63.5zM301 123v326h140v-369q0 -4 3 -7t7 -3q2 0 3 1l1 1q12 10 19.5 23.5t7.5 27.5h59q0 -51 -36 -86t-85 -35t-84 35t-35 86zM0 401v60h68v295 v293q0 66 45 104.5t98 38.5q27 0 52.5 -9t45.5 -32l-41 -43q-10 10 -24.5 17.5t-30.5 7.5h-3h-3l2 -672h70v-60h-70v-862h-141v862h-68z" />
<glyph unicode="&#xfb02;" horiz-adv-x="561" d="M291 123v926q0 59 43 101t100 42q29 0 54.5 -10.5t46.5 -30.5l-43 -43q-8 10 -22.5 17.5t-30.5 7.5h-4h-3v-1053q0 -4 3.5 -7t7.5 -3q2 0 3 1l1 1q12 10 19 23.5t7 27.5h60q0 -51 -36 -86t-85 -35t-85 35t-36 86zM0 401v60h68v295v293q0 66 45 104.5t98 38.5 q27 0 52.5 -9t45.5 -32l-41 -43q-10 10 -24.5 17.5t-30.5 7.5h-3h-3l2 -672h70v-60h-70v-862h-141v862h-68z" />
<glyph unicode="&#xfb03;" horiz-adv-x="854" d="M570 713q0 39 25.5 65.5t64.5 26.5q37 0 63.5 -26.5t26.5 -65.5q0 -37 -26.5 -63.5t-63.5 -26.5q-39 0 -64.5 26.5t-25.5 63.5zM590 123v326h140v-369q0 -4 3 -7t7 -3q2 0 3 1l1 1q12 10 19.5 23.5t7.5 27.5h59q0 -51 -36 -86t-85 -35t-84 35t-35 86zM289 401v60h68v295 v293q0 66 45 104.5t98 38.5q27 0 52.5 -9t45.5 -32l-41 -43q-10 10 -24.5 17.5t-30.5 7.5h-3h-3l2 -672h70v-60h-70v-862h-141v862h-68zM0 401v60h68v295v293q0 66 45 104.5t98 38.5q27 0 52.5 -9t45.5 -32l-41 -43q-10 10 -24.5 17.5t-30.5 7.5h-3h-3l2 -672h70v-60h-70 v-862h-141v862h-68z" />
<glyph unicode="&#xfb04;" horiz-adv-x="849" d="M580 123v926q0 59 43 101t100 42q29 0 54.5 -10.5t46.5 -30.5l-43 -43q-8 10 -22.5 17.5t-30.5 7.5h-4h-3v-1053q0 -4 3.5 -7t7.5 -3q2 0 3 1l1 1q12 10 19 23.5t7 27.5h60q0 -51 -36 -86t-85 -35t-85 35t-36 86zM289 401v60h68v295v293q0 66 45 104.5t98 38.5 q27 0 52.5 -9t45.5 -32l-41 -43q-10 10 -24.5 17.5t-30.5 7.5h-3h-3l2 -672h70v-60h-70v-862h-141v862h-68zM0 401v60h68v295v293q0 66 45 104.5t98 38.5q27 0 52.5 -9t45.5 -32l-41 -43q-10 10 -24.5 17.5t-30.5 7.5h-3h-3l2 -672h70v-60h-70v-862h-141v862h-68z" />
</font>
</defs>
</svg>
