<svg xmlns="http://www.w3.org/2000/svg" class="icon--sprite">
  <defs>
    <symbol viewBox="0 -960 960 960" id="icon--3-bullets">
      <path d="M263.79-408Q234-408 213-429.21t-21-51Q192-510 213.21-531t51-21Q294-552 315-530.79t21 51Q336-450 314.79-429t-51 21Zm216 0Q450-408 429-429.21t-21-51Q408-510 429.21-531t51-21Q510-552 531-530.79t21 51Q552-450 530.79-429t-51 21Zm216 0Q666-408 645-429.21t-21-51Q624-510 645.21-531t51-21Q726-552 747-530.79t21 51Q768-450 746.79-429t-51 21Z"/>
    </symbol>
    <symbol viewBox="0 -960 960 960" id="icon--add">
      <path d="M444-288h72v-156h156v-72H516v-156h-72v156H288v72h156v156Zm36.28 192Q401-96 331-126t-122.5-82.5Q156-261 126-330.96t-30-149.5Q96-560 126-629.5q30-69.5 82.5-122T330.96-834q69.96-30 149.5-30t149.04 30q69.5 30 122 82.5T834-629.28q30 69.73 30 149Q864-401 834-331t-82.5 122.5Q699-156 629.28-126q-69.73 30-149 30Zm-.28-72q130 0 221-91t91-221q0-130-91-221t-221-91q-130 0-221 91t-91 221q0 130 91 221t221 91Zm0-312Z"/>
    </symbol>
    <symbol viewBox="0 -960 960 960" id="icon--angle-down">
      <path d="M480-333 240-573l51-51 189 189 189-189 51 51-240 240Z"/>
    </symbol>
    <symbol viewBox="0 -960 960 960" id="icon--angle-right">
      <path d="M522-480 333-669l51-51 240 240-240 240-51-51 189-189Z"/>
    </symbol>
    <symbol viewBox="0 -960 960 960" id="icon--angle-up">
      <path d="M480-525 291-336l-51-51 240-240 240 240-51 51-189-189Z"/>
    </symbol>
    <symbol viewBox="0 0 24 24" id="icon--application-pdf">
      <path fill="currentColor" d="M19 3H5c-1.1 0-2 .9-2 2v14c0 1.1.9 2 2 2h14c1.1 0 2-.9 2-2V5c0-1.1-.9-2-2-2m-9.5 8.5c0 .8-.7 1.5-1.5 1.5H7v2H5.5V9H8c.8 0 1.5.7 1.5 1.5zm5 2c0 .8-.7 1.5-1.5 1.5h-2.5V9H13c.8 0 1.5.7 1.5 1.5zm4-3H17v1h1.5V13H17v2h-1.5V9h3zm-6.5 0h1v3h-1zm-5 0h1v1H7z"/>
    </symbol>
    <symbol viewBox="0 0 24 24" id="icon--application-x-gzip">
      <path fill="currentColor" d="M12 17v-2h2v2zm2-4v-2h-2v2zm0-4V7h-2v2zm-4 2h2V9h-2zm0 4h2v-2h-2zM21 5v14c0 1.1-.9 2-2 2H5c-1.1 0-2-.9-2-2V5c0-1.1.9-2 2-2h14c1.1 0 2 .9 2 2m-2 0h-7v2h-2V5H5v14h14z"/>
    </symbol>
    <symbol viewBox="0 0 24 24" id="icon--application-zip">
      <path fill="currentColor" d="M12 17v-2h2v2zm2-4v-2h-2v2zm0-4V7h-2v2zm-4 2h2V9h-2zm0 4h2v-2h-2zM21 5v14c0 1.1-.9 2-2 2H5c-1.1 0-2-.9-2-2V5c0-1.1.9-2 2-2h14c1.1 0 2 .9 2 2m-2 0h-7v2h-2V5H5v14h14z"/>
    </symbol>
    <symbol viewBox="0 -960 960 960" id="icon--arrow-right">
      <path d="m576-288-51-51 105-105H192v-72h438L525-621l51-51 192 192-192 192Z"/>
    </symbol>
    <symbol viewBox="0 -960 960 960" id="icon--attachment">
      <path d="M312-264q-89.86 0-152.93-63.07Q96-390.14 96-480q0-91 65.5-153.5T319-696h389q65 0 110.5 45.5T864-540q0 66-48 111t-115 45H336q-40.15 0-68.07-27.93Q240-439.85 240-480q0-41 29.09-68.5T340-576h380v72H336q-10.4 0-17.2 6.8-6.8 6.8-6.8 17.2 0 10.4 6.8 17.2 6.8 6.8 17.2 6.8h372q35 0 59.5-24.5t24.5-59.7q0-35.19-25.5-59.5Q741-624 706-624H312q-60 0-101.5 42T168-480q-1 60 43 102t106 42h403v72H312Z"/>
    </symbol>
    <symbol viewBox="0 -960 960 960" id="icon--bookmark-add">
      <path d="M240-144v-600q0-30.11 21-51.56Q282-817 312-816h216v72H312v493l168-67 168 67v-277h72v384l-240-96-240 96Zm72-600h216-216Zm372 132v-72h-72v-72h72v-72h72v72h72v72h-72v72h-72Z"/>
    </symbol>
    <symbol viewBox="0 -960 960 960" id="icon--bookmark-delete">
      <path d="M828-684H612v-72h216v72ZM240-144v-600q0-30.11 21-51.56Q282-817 312-816h216v72H312v493l168-67 168 67v-277h72v384l-240-96-240 96Zm72-600h216-216Z"/>
    </symbol>
    <symbol viewBox="0 -960 960 960" id="icon--bookmarked">
      <path d="M240-144v-600q0-29.7 21.15-50.85Q282.3-816 312-816h336q29.7 0 50.85 21.15Q720-773.7 720-744v600l-240-96-240 96Zm72-107 168-67 168 67v-493H312v493Zm0-493h336-336Z"/>
    </symbol>
    <symbol viewBox="0 -960 960 960" id="icon--bullet-end">
      <path d="m330-444 201 201-51 51-288-288 288-288 51 51-201 201h438v72H330Z"/>
    </symbol>
    <symbol viewBox="0 -960 960 960" id="icon--bullet-go">
      <path d="M630-444H192v-72h438L429-717l51-51 288 288-288 288-51-51 201-201Z"/>
    </symbol>
    <symbol viewBox="0 -960 960 960" id="icon--bullet-go-end">
      <path d="M480-240 240-480l240-240 240 240-240 240Zm0-102 138-138-138-138-138 138 138 138Zm0-138Z"/>
    </symbol>
    <symbol viewBox="0 -960 960 960" id="icon--cancel">
      <path d="M744-210v-144q0-50-35-85t-85-35H282l123 123-51 51-210-210 210-210 51 51-123 123h342q80 0 136 56t56 136v144h-72Z"/>
    </symbol>
    <symbol viewBox="0 -960 960 960" id="icon--changeset">
      <path d="M336-240 96-480l240-240 51 51-189 189 189 189-51 51Zm288 0-51-51 189-189-189-189 51-51 240 240-240 240Z"/>
    </symbol>
    <symbol viewBox="0 -960 960 960" id="icon--checked">
      <path d="M389-267 195-460l51-52 143 143 325-324 51 51-376 375Z"/>
    </symbol>
    <symbol viewBox="0 -960 960 960" id="icon--clear-query">
      <path d="m350-299 130.19-130.19L610.37-299 661-349.63 530.81-479.81 661-610l-51-51-130.19 130.19L349.63-661 299-610.37l130.19 130.18L299-350l51 51ZM216-144q-29.7 0-50.85-21.15Q144-186.3 144-216v-528q0-29.7 21.15-50.85Q186.3-816 216-816h528q29.7 0 50.85 21.15Q816-773.7 816-744v528q0 29.7-21.15 50.85Q773.7-144 744-144H216Zm0-72h528v-528H216v528Zm0-528v528-528Z"/>
    </symbol>
    <symbol viewBox="0 -960 960 960" id="icon--close">
      <path d="m350-299 130.19-130.19L610.37-299 661-349.63 530.81-479.81 661-610l-51-51-130.19 130.19L349.63-661 299-610.37l130.19 130.18L299-350l51 51ZM216-144q-29.7 0-50.85-21.15Q144-186.3 144-216v-528q0-29.7 21.15-50.85Q186.3-816 216-816h528q29.7 0 50.85 21.15Q816-773.7 816-744v528q0 29.7-21.15 50.85Q773.7-144 744-144H216Zm0-72h528v-528H216v528Zm0-528v528-528Z"/>
    </symbol>
    <symbol viewBox="0 -960 960 960" id="icon--comment">
      <path d="M240-384h480v-72H240v72Zm0-132h480v-72H240v72Zm0-132h480v-72H240v72ZM864-96 720-240H168q-29.7 0-50.85-21.15Q96-282.3 96-312v-480q0-29.7 21.15-50.85Q138.3-864 168-864h624q29.7 0 50.85 21.15Q864-821.7 864-792v696ZM168-312h582l42 42v-522H168v480Zm0 0v-480 480Z"/>
    </symbol>
    <symbol viewBox="0 -960 960 960" id="icon--comments">
      <path d="M360-240q-30 0-51-21t-21-51v-48h456v-312h48q30 0 51 21t21 51v504L720-240H360ZM96-288v-504q0-30 21-51t51-21h432q30 0 51 21t21 51v288q0 30-21 51t-51 21H240L96-288Zm504-216v-288H168v288h432Zm-432 0v-288 288Z"/>
    </symbol>
    <symbol viewBox="0 -960 960 960" id="icon--copy">
      <path d="M360-240q-29.7 0-50.85-21.15Q288-282.3 288-312v-480q0-29.7 21.15-50.85Q330.3-864 360-864h384q29.7 0 50.85 21.15Q816-821.7 816-792v480q0 29.7-21.15 50.85Q773.7-240 744-240H360Zm0-72h384v-480H360v480ZM216-96q-29.7 0-50.85-21.15Q144-138.3 144-168v-552h72v552h456v72H216Zm144-216v-480 480Z"/>
    </symbol>
    <symbol viewBox="0 -960 960 960" id="icon--copy-link">
      <path d="M216-144q-29.7 0-50.85-21.15Q144-186.3 144-216v-528q0-29.7 21.15-50.85Q186.3-816 216-816h171q8-31 33.5-51.5T480-888q34 0 59.5 20.5T573-816h171q29.7 0 50.85 21.15Q816-773.7 816-744v528q0 29.7-21.15 50.85Q773.7-144 744-144H216Zm0-72h528v-528h-72v120H288v-120h-72v528Zm263.79-528q15.21 0 25.71-10.29t10.5-25.5q0-15.21-10.29-25.71t-25.5-10.5q-15.21 0-25.71 10.29t-10.5 25.5q0 15.21 10.29 25.71t25.5 10.5Z"/>
    </symbol>
    <symbol viewBox="0 -960 960 960" id="icon--custom-fields">
      <path d="M168-144q-29.7 0-50.85-21.15Q96-186.3 96-216v-480q0-29.7 21.15-50.85Q138.3-768 168-768h624q29.7 0 50.85 21.15Q864-725.7 864-696v480q0 29.7-21.15 50.85Q821.7-144 792-144H168Zm0-72h276v-480H168v480Zm348 0h276v-480H516v480Zm-300-72h180v-72H216v72Zm0-132h180v-72H216v72Zm0-132h180v-72H216v72Zm348 265h180v-72H564v72Zm0-132h180v-72H564v72Zm0-132h180v-72H564v72ZM444-216v-480 480Z"/>
    </symbol>
    <symbol viewBox="0 -960 960 960" id="icon--del">
      <path d="M312-144q-29.7 0-50.85-21.15Q240-186.3 240-216v-480h-48v-72h192v-48h192v48h192v72h-48v479.57Q720-186 698.85-165T648-144H312Zm336-552H312v480h336v-480ZM384-288h72v-336h-72v336Zm120 0h72v-336h-72v336ZM312-696v480-480Z"/>
    </symbol>
    <symbol viewBox="0 -960 960 960" id="icon--document">
      <path d="M336-240h288v-72H336v72Zm0-144h288v-72H336v72ZM263.72-96Q234-96 213-117.15T192-168v-624q0-29.7 21.15-50.85Q234.3-864 264-864h312l192 192v504q0 29.7-21.16 50.85Q725.68-96 695.96-96H263.72ZM528-624v-168H264v624h432v-456H528ZM264-792v189-189 624-624Z"/>
    </symbol>
    <symbol viewBox="0 -960 960 960" id="icon--download">
      <path d="M480-336 288-528l51-51 105 105v-342h72v342l105-105 51 51-192 192ZM263.72-192Q234-192 213-213.15T192-264v-72h72v72h432v-72h72v72q0 29.7-21.16 50.85Q725.68-192 695.96-192H263.72Z"/>
    </symbol>
    <symbol viewBox="0 -960 960 960" id="icon--edit">
      <path d="M216-216h51l375-375-51-51-375 375v51Zm-72 72v-153l498-498q11-11 23.84-16 12.83-5 27-5 14.16 0 27.16 5t24 16l51 51q11 11 16 24t5 26.54q0 14.45-5.02 27.54T795-642L297-144H144Zm600-549-51-51 51 51Zm-127.95 76.95L591-642l51 51-25.95-25.05Z"/>
    </symbol>
    <symbol viewBox="0 -960 960 960" id="icon--email">
      <path d="M168-192q-29.7 0-50.85-21.16Q96-234.32 96-264.04v-432.24Q96-726 117.15-747T168-768h624q29.7 0 50.85 21.16Q864-725.68 864-695.96v432.24Q864-234 842.85-213T792-192H168Zm312-240L168-611v347h624v-347L480-432Zm0-85 312-179H168l312 179Zm-312-94v-85 432-347Z"/>
    </symbol>
    <symbol viewBox="0 -960 960 960" id="icon--email-disabled">
      <path d="M381-477Zm198-6ZM769-90 666-192H168q-29.7 0-50.85-21.16Q96-234.32 96-264.04v-432.24Q96-726 116.86-747q20.85-21 50.14-21h25l78 78H168v426h426L90-769l51-50 678 678-50 51Zm77-126-54-54v-341L575-487l-54-54 271-155H366l-72-72h498q29.7 0 50.85 21.15Q864-725.7 864-696v432q0 14-4 25.96-4 11.97-14 22.04Z"/>
    </symbol>
    <symbol viewBox="0 -960 960 960" id="icon--error">
      <path d="M479.79-288q15.21 0 25.71-10.29t10.5-25.5q0-15.21-10.29-25.71t-25.5-10.5q-15.21 0-25.71 10.29t-10.5 25.5q0 15.21 10.29 25.71t25.5 10.5ZM444-432h72v-240h-72v240Zm36.28 336Q401-96 331-126t-122.5-82.5Q156-261 126-330.96t-30-149.5Q96-560 126-629.5q30-69.5 82.5-122T330.96-834q69.96-30 149.5-30t149.04 30q69.5 30 122 82.5T834-629.28q30 69.73 30 149Q864-401 834-331t-82.5 122.5Q699-156 629.28-126q-69.73 30-149 30Zm-.28-72q130 0 221-91t91-221q0-130-91-221t-221-91q-130 0-221 91t-91 221q0 130 91 221t221 91Zm0-312Z"/>
    </symbol>
    <symbol viewBox="0 -960 960 960" id="icon--fav">
      <path d="m352-293 128-76 129 76-34-144 111-95-147-13-59-137-59 137-147 13 112 95-34 144ZM243-144l63-266L96-589l276-24 108-251 108 252 276 23-210 179 63 266-237-141-237 141Zm237-333Z"/>
    </symbol>
    <symbol viewBox="0 -960 960 960" id="icon--fav-off">
      <path d="m352-293 128-76 129 76-34-144 111-95-147-13-59-137-59 137-147 13 112 95-34 144ZM243-144l63-266L96-589l276-24 108-251 108 252 276 23-210 179 63 266-237-141-237 141Zm237-333Z"/>
    </symbol>
    <symbol viewBox="0 -960 960 960" id="icon--file">
      <path d="M263.72-96Q234-96 213-117.15T192-168v-624q0-29.7 21.15-50.85Q234.3-864 264-864h312l192 192v504q0 29.7-21.16 50.85Q725.68-96 695.96-96H263.72ZM528-624v-168H264v624h432v-456H528ZM264-792v189-189 624-624Z"/>
    </symbol>
    <symbol viewBox="0 -960 960 960" id="icon--folder">
      <path d="M168-192q-29 0-50.5-21.5T96-264v-432q0-29.7 21.5-50.85Q139-768 168-768h216l96 96h312q29.7 0 50.85 21.15Q864-629.7 864-600v336q0 29-21.15 50.5T792-192H168Zm0-72h624v-336H450l-96-96H168v432Zm0 0v-432 432Z"/>
    </symbol>
    <symbol viewBox="0 -960 960 960" id="icon--folder-open">
      <path d="M168-192q-32 0-52-21.16t-20-50.88v-432.24Q96-726 116-747t52-21h216l96 96h313q31 0 50.5 21t21.5 51H451l-96-96H168v432l78-264h690l-85 285q-8 23-21 37t-38 14H168Zm75-72h538l59-192H300l-57 192Zm0 0 57-192-57 192Zm-75-336v-96 96Z"/>
    </symbol>
    <symbol viewBox="0 -960 960 960" id="icon--group">
      <path d="M96-192v-92q0-25.78 12.5-47.39T143-366q54-32 114.5-49T384-432q66 0 126.5 17T625-366q22 13 34.5 34.61T672-284v92H96Zm648 0v-92q0-42-19.5-78T672-421q39 8 75.5 21.5T817-366q22 13 34.5 34.67Q864-309.65 864-284v92H744ZM384-480q-60 0-102-42t-42-102q0-60 42-102t102-42q60 0 102 42t42 102q0 60-42 102t-102 42Zm336-144q0 60-42 102t-102 42q-8 0-15-.5t-15-2.5q25-29 39.5-64.5T600-624q0-41-14.5-76.5T546-765q8-2 15-2.5t15-.5q60 0 102 42t42 102ZM168-264h432v-20q0-6.47-3.03-11.76-3.02-5.3-7.97-8.24-47-27-99-41.5T384-360q-54 0-106 14t-99 42q-4.95 2.83-7.98 7.91-3.02 5.09-3.02 12V-264Zm216.21-288Q414-552 435-573.21t21-51Q456-654 434.79-675t-51-21Q354-696 333-674.79t-21 51Q312-594 333.21-573t51 21ZM384-264Zm0-360Z"/>
    </symbol>
    <symbol viewBox="0 -960 960 960" id="icon--help">
      <path d="M444-288h72v-240h-72v240Zm35.79-312q15.21 0 25.71-10.29t10.5-25.5q0-15.21-10.29-25.71t-25.5-10.5q-15.21 0-25.71 10.29t-10.5 25.5q0 15.21 10.29 25.71t25.5 10.5Zm.49 504Q401-96 331-126t-122.5-82.5Q156-261 126-330.96t-30-149.5Q96-560 126-629.5q30-69.5 82.5-122T330.96-834q69.96-30 149.5-30t149.04 30q69.5 30 122 82.5T834-629.28q30 69.73 30 149Q864-401 834-331t-82.5 122.5Q699-156 629.28-126q-69.73 30-149 30Zm-.28-72q130 0 221-91t91-221q0-130-91-221t-221-91q-130 0-221 91t-91 221q0 130 91 221t221 91Zm0-312Z"/>
    </symbol>
    <symbol viewBox="0 -960 960 960" id="icon--history">
      <path d="M480-144q-140 0-238-98t-98-238h72q0 109 77.5 186.5T480-216q109 0 186.5-77.5T744-480q0-109-77.5-186.5T480-744q-62 0-114.55 25.6Q312.91-692.8 277-648h107v72H144v-240h72v130q46-60 114.5-95T480-816q70 0 131.13 26.6 61.14 26.6 106.4 71.87 45.27 45.26 71.87 106.4Q816-550 816-480t-26.6 131.13q-26.6 61.14-71.87 106.4-45.26 45.27-106.4 71.87Q550-144 480-144Zm100-200L444-480v-192h72v162l115 115-51 51Z"/>
    </symbol>
    <symbol viewBox="0 0 24 24" id="icon--image-gif">
      <path fill="currentColor" d="M19 3H5c-1.1 0-2 .9-2 2v14c0 1.1.9 2 2 2h14c1.1 0 2-.9 2-2V5c0-1.1-.9-2-2-2m-9 7.5H7.5v3h1V12H10v1.7c0 .7-.5 1.3-1.3 1.3H7.3c-.8 0-1.3-.7-1.3-1.3v-3.3C6 9.7 6.5 9 7.3 9h1.3c.9 0 1.4.7 1.4 1.3zm3 4.5h-1.5V9H13zm4.5-4.5H16v1h1.5V13H16v2h-1.5V9h3z"/>
    </symbol>
    <symbol viewBox="0 0 24 24" id="icon--image-jpeg">
      <path fill="currentColor" d="M19 3H5c-1.1 0-2 .9-2 2v14c0 1.1.9 2 2 2h14c1.1 0 2-.9 2-2V5c0-1.1-.9-2-2-2M9 13.5c0 1.1-.9 1.5-2 1.5s-2-.4-2-1.5V12h1.5v1.5h1V9H9zm5-2c0 .8-.7 1.5-1.5 1.5h-1v2H10V9h2.5c.8 0 1.5.7 1.5 1.5zm5-1h-2.5v3h1V12H19v1.7c0 .7-.5 1.3-1.3 1.3h-1.3c-.8 0-1.3-.7-1.3-1.3v-3.3c-.1-.7.4-1.4 1.2-1.4h1.3c.8 0 1.3.7 1.3 1.3v.2m-7.4 0h1v1h-1z"/>
    </symbol>
    <symbol viewBox="0 0 24 24" id="icon--image-png">
      <path fill="currentColor" d="M19 3H5c-1.1 0-2 .9-2 2v14c0 1.1.9 2 2 2h14c1.1 0 2-.9 2-2V5c0-1.1-.9-2-2-2M9 11.5c0 .8-.7 1.5-1.5 1.5h-1v2H5V9h2.5c.8 0 1.5.7 1.5 1.5zm5 3.5h-1.5l-1-2.5V15H10V9h1.5l1 2.5V9H14zm5-4.5h-2.5v3h1V12H19v1.7c0 .7-.5 1.3-1.3 1.3h-1.3c-.8 0-1.3-.7-1.3-1.3v-3.3c-.1-.7.4-1.4 1.2-1.4h1.3c.8 0 1.3.7 1.3 1.3v.2zm-12.5 0h1v1h-1z"/>
    </symbol>
    <symbol viewBox="0 0 24 24" id="icon--image-tiff">
      <path fill="currentColor" d="m14 2l6 6v12a2 2 0 0 1-2 2H6a2 2 0 0 1-2-2V4a2 2 0 0 1 2-2zm4 18V9h-5V4H6v16zm-1-7v6H7l5-5l2 2m-4-5.5A1.5 1.5 0 0 1 8.5 12A1.5 1.5 0 0 1 7 10.5A1.5 1.5 0 0 1 8.5 9a1.5 1.5 0 0 1 1.5 1.5"/>
    </symbol>
    <symbol viewBox="0 -960 960 960" id="icon--import">
      <path d="M444-240h72v-150l57 57 51-51-144-144-144 144 51 51 57-57v150ZM263.72-96Q234-96 213-117.15T192-168v-624q0-29.7 21.15-50.85Q234.3-864 264-864h312l192 192v504q0 29.7-21.16 50.85Q725.68-96 695.96-96H263.72ZM528-624v-168H264v624h432v-456H528ZM264-792v189-189 624-624Z"/>
    </symbol>
    <symbol viewBox="0 -960 960 960" id="icon--issue">
      <path d="M216-144q-29.7 0-50.85-21.15Q144-186.3 144-216v-528q0-29.7 21.15-50.85Q186.3-816 216-816h171q8-31 33.5-51.5T480-888q34 0 59.5 20.5T573-816h171q29.7 0 50.85 21.15Q816-773.7 816-744v528q0 29.7-21.15 50.85Q773.7-144 744-144H216Zm0-72h528v-528H216v528Zm72-72h288v-72H288v72Zm0-156h384v-72H288v72Zm0-156h384v-72H288v72Zm192-168q10.4 0 17.2-6.8 6.8-6.8 6.8-17.2 0-10.4-6.8-17.2-6.8-6.8-17.2-6.8-10.4 0-17.2 6.8-6.8 6.8-6.8 17.2 0 10.4 6.8 17.2 6.8 6.8 17.2 6.8ZM216-216v-528 528Z"/>
    </symbol>
    <symbol viewBox="0 -960 960 960" id="icon--issue-closed">
      <path d="m429-336 238-237-51-51-187 186-85-84-51 51 136 135ZM216-144q-29.7 0-50.85-21.15Q144-186.3 144-216v-528q0-29.7 21.15-50.85Q186.3-816 216-816h171q8-31 33.5-51.5T480-888q34 0 59.5 20.5T573-816h171q29.7 0 50.85 21.15Q816-773.7 816-744v528q0 29.7-21.15 50.85Q773.7-144 744-144H216Zm0-72h528v-528H216v528Zm264-552q10.4 0 17.2-6.8 6.8-6.8 6.8-17.2 0-10.4-6.8-17.2-6.8-6.8-17.2-6.8-10.4 0-17.2 6.8-6.8 6.8-6.8 17.2 0 10.4 6.8 17.2 6.8 6.8 17.2 6.8ZM216-216v-528 528Z"/>
    </symbol>
    <symbol viewBox="0 0 24 24" id="icon--issue-edit">
      <path id="edit" d="M8.11111 15.8889H8.90278L14.3333 10.4583L13.5417 9.66667L8.11111 15.0972V15.8889ZM7 17V14.6389L14.3333 7.31944C14.4444 7.21759 14.5671 7.13889 14.7014 7.08333C14.8356 7.02778 14.9769 7 15.125 7C15.2731 7 15.4167 7.02778 15.5556 7.08333C15.6944 7.13889 15.8148 7.22222 15.9167 7.33333L16.6806 8.11111C16.7917 8.21296 16.8727 8.33333 16.9236 8.47222C16.9745 8.61111 17 8.75 17 8.88889C17 9.03704 16.9745 9.17824 16.9236 9.3125C16.8727 9.44676 16.7917 9.56944 16.6806 9.68056L9.36111 17H7ZM13.9306 10.0694L13.5417 9.66667L14.3333 10.4583L13.9306 10.0694Z"/>
      <path id="assignment_turned_in" d="M5 21C4.45 21 3.97917 20.8042 3.5875 20.4125C3.19583 20.0208 3 19.55 3 19V5C3 4.45 3.19583 3.97917 3.5875 3.5875C3.97917 3.19583 4.45 3 5 3H9.2C9.41667 2.4 9.77917 1.91667 10.2875 1.55C10.7958 1.18333 11.3667 1 12 1C12.6333 1 13.2042 1.18333 13.7125 1.55C14.2208 1.91667 14.5833 2.4 14.8 3H19C19.55 3 20.0208 3.19583 20.4125 3.5875C20.8042 3.97917 21 4.45 21 5V19C21 19.55 20.8042 20.0208 20.4125 20.4125C20.0208 20.8042 19.55 21 19 21H5ZM5 19H19V5H5V19ZM12 4.25C12.2167 4.25 12.3958 4.17917 12.5375 4.0375C12.6792 3.89583 12.75 3.71667 12.75 3.5C12.75 3.28333 12.6792 3.10417 12.5375 2.9625C12.3958 2.82083 12.2167 2.75 12 2.75C11.7833 2.75 11.6042 2.82083 11.4625 2.9625C11.3208 3.10417 11.25 3.28333 11.25 3.5C11.25 3.71667 11.3208 3.89583 11.4625 4.0375C11.6042 4.17917 11.7833 4.25 12 4.25Z"/>
    </symbol>
    <symbol viewBox="0 0 24 24" id="icon--issue-note">
      <path d="M12.5 23.5L13.475 20.15C13.3167 19.8083 13.1979 19.4583 13.1188 19.1C13.0396 18.7417 13 18.375 13 18C13 17.3083 13.1313 16.6583 13.3938 16.05C13.6562 15.4417 14.0125 14.9125 14.4625 14.4625C14.9125 14.0125 15.4417 13.6562 16.05 13.3938C16.6583 13.1312 17.3083 13 18 13C18.6917 13 19.3417 13.1312 19.95 13.3938C20.5583 13.6562 21.0875 14.0125 21.5375 14.4625C21.9875 14.9125 22.3438 15.4417 22.6062 16.05C22.8687 16.6583 23 17.3083 23 18C23 18.6917 22.8687 19.3417 22.6062 19.95C22.3438 20.5583 21.9875 21.0875 21.5375 21.5375C21.0875 21.9875 20.5583 22.3438 19.95 22.6062C19.3417 22.8687 18.6917 23 18 23C17.625 23 17.2583 22.9604 16.9 22.8813C16.5417 22.8021 16.1917 22.6833 15.85 22.525L12.5 23.5ZM13.975 22.025L15.575 21.55C15.6917 21.5167 15.8104 21.5042 15.9313 21.5125C16.0521 21.5208 16.1667 21.55 16.275 21.6C16.5417 21.7333 16.8208 21.8333 17.1125 21.9C17.4042 21.9667 17.7 22 18 22C19.1167 22 20.0625 21.6125 20.8375 20.8375C21.6125 20.0625 22 19.1167 22 18C22 16.8833 21.6125 15.9375 20.8375 15.1625C20.0625 14.3875 19.1167 14 18 14C16.8833 14 15.9375 14.3875 15.1625 15.1625C14.3875 15.9375 14 16.8833 14 18C14 18.3 14.0333 18.5958 14.1 18.8875C14.1667 19.1792 14.2667 19.4583 14.4 19.725C14.4583 19.8333 14.4896 19.9479 14.4937 20.0687C14.4979 20.1896 14.4833 20.3083 14.45 20.425L13.975 22.025ZM17.5 20H18.5V18.5H20V17.5H18.5V16H17.5V17.5H16V18.5H17.5V20Z"/>
      <path d="M5 21C4.45 21 3.97917 20.8042 3.5875 20.4125C3.19583 20.0208 3 19.55 3 19V5C3 4.45 3.19583 3.97917 3.5875 3.5875C3.97917 3.19583 4.45 3 5 3H9.2C9.41667 2.4 9.77917 1.91667 10.2875 1.55C10.7958 1.18333 11.3667 1 12 1C12.6333 1 13.2042 1.18333 13.7125 1.55C14.2208 1.91667 14.5833 2.4 14.8 3H19C19.55 3 20.0208 3.19583 20.4125 3.5875C20.8042 3.97917 21 4.45 21 5V11.7C20.6833 11.55 20.3583 11.4208 20.025 11.3125C19.6917 11.2042 19.35 11.125 19 11.075V5H5V19H11.05C11.1 19.3667 11.1792 19.7167 11.2875 20.05C11.3958 20.3833 11.525 20.7 11.675 21H5ZM5 19V5V11.075V11V19ZM7 17H11.075C11.125 16.65 11.2042 16.3083 11.3125 15.975C11.4208 15.6417 11.5417 15.3167 11.675 15H7V17ZM7 13H13.1C13.6333 12.5 14.2292 12.0833 14.8875 11.75C15.5458 11.4167 16.25 11.1917 17 11.075V11H7V13ZM7 9H17V7H7V9ZM12 4.25C12.2167 4.25 12.3958 4.17917 12.5375 4.0375C12.6792 3.89583 12.75 3.71667 12.75 3.5C12.75 3.28333 12.6792 3.10417 12.5375 2.9625C12.3958 2.82083 12.2167 2.75 12 2.75C11.7833 2.75 11.6042 2.82083 11.4625 2.9625C11.3208 3.10417 11.25 3.28333 11.25 3.5C11.25 3.71667 11.3208 3.89583 11.4625 4.0375C11.6042 4.17917 11.7833 4.25 12 4.25Z"/>
    </symbol>
    <symbol viewBox="0 -960 960 960" id="icon--link">
      <path d="M432-288H288q-79.68 0-135.84-56.23Q96-400.45 96-480.23 96-560 152.16-616q56.16-56 135.84-56h144v72H288q-50 0-85 35t-35 85q0 50 35 85t85 35h144v72Zm-96-156v-72h288v72H336Zm192 156v-72h144q50 0 85-35t35-85q0-50-35-85t-85-35H528v-72h144q79.68 0 135.84 56.23 56.16 56.22 56.16 136Q864-400 807.84-344 751.68-288 672-288H528Z"/>
    </symbol>
    <symbol viewBox="0 -960 960 960" id="icon--link-break">
      <path d="m754-308-56-55q41.78-11.3 67.89-43.65Q792-439 792-480q0-50-35-85t-85-35H528v-72h144q79.68 0 135.84 56.22 56.16 56.23 56.16 136Q864-425 834.5-379T754-308ZM618-444l-72-72h78v72h-6ZM768-90 90-768l51-51 678 678-51 51ZM432-288H288q-79.68 0-135.84-56.16T96-480q0-63.93 38-113.97Q172-644 242-673l70 73h-23q-51 0-86 35t-35 85q0 50 35 85t85 35h144v72Zm-96-156v-72h56l71 72H336Z"/>
    </symbol>
    <symbol viewBox="0 -960 960 960" id="icon--list">
      <path d="M96-192v-144h144v144H96Zm216 0v-144h552v144H312ZM96-408v-144h144v144H96Zm216 0v-144h552v144H312ZM96-624v-144h144v144H96Zm216 0v-144h552v144H312Z"/>
    </symbol>
    <symbol viewBox="0 -960 960 960" id="icon--lock">
      <path d="M263.72-96Q234-96 213-117.15T192-168v-384q0-29.7 21.15-50.85Q234.3-624 264-624h24v-96q0-79.68 56.23-135.84 56.22-56.16 136-56.16Q560-912 616-855.84q56 56.16 56 135.84v96h24q29.7 0 50.85 21.15Q768-581.7 768-552v384q0 29.7-21.16 50.85Q725.68-96 695.96-96H263.72Zm.28-72h432v-384H264v384Zm216.21-120Q510-288 531-309.21t21-51Q552-390 530.79-411t-51-21Q450-432 429-410.79t-21 51Q408-330 429.21-309t51 21ZM360-624h240v-96q0-50-35-85t-85-35q-50 0-85 35t-35 85v96Zm-96 456v-384 384Z"/>
    </symbol>
    <symbol viewBox="0 -960 960 960" id="icon--move">
      <path d="M798-444H336v-72h462l-57-57 51-51 144 144-144 144-51-51 57-57ZM600-588v-156H216v528h384v-156h72v156q0 29.7-21.15 50.85Q629.7-144 600-144H216q-29.7 0-50.85-21.15Q144-186.3 144-216v-528q0-29.7 21.15-50.85Q186.3-816 216-816h384q29.7 0 50.85 21.15Q672-773.7 672-744v156h-72Z"/>
    </symbol>
    <symbol viewBox="0 -960 960 960" id="icon--news">
      <path d="M216-144q-29.7 0-50.85-21.15Q144-186.3 144-216v-528q0-29.7 21.15-50.85Q186.3-816 216-816h408l192 192v408q0 29.7-21.15 50.85Q773.7-144 744-144H216Zm0-72h528v-360H576v-168H216v528Zm72-72h384v-72H288v72Zm12-300h180v-72H300v72Zm-12 168h384v-72H288v72Zm-72-324v156-156 528-528Z"/>
    </symbol>
    <symbol viewBox="0 -960 960 960" id="icon--package">
      <path d="M444-189v-270L216-591v270l228 132Zm72 0 228-131v-270L516-459v270Zm-36-333 235-135-236-135-234 135 235 135ZM180-258q-17.1-9.88-26.55-26.06Q144-300.23 144-320v-320q0-19.77 9.45-35.94Q162.9-692.12 180-702l263-152q17-10 37-10t37 10l263 152q17.1 9.88 26.55 26.06Q816-659.77 816-640v320q0 19.77-9.45 35.94Q797.1-267.88 780-258L516-105q-17.13 10-36.07 10Q461-95 444-105L180-258Zm300-222Z"/>
    </symbol>
    <symbol viewBox="0 -960 960 960" id="icon--plugins">
      <path d="M384-144H216q-29.7 0-50.85-21.15Q144-186.3 144-216v-168q40-2 68-29.5t28-66.5q0-39-28-66.5T144-576v-168q0-29.7 21.15-50.85Q186.3-816 216-816h168q0-40 27.77-68 27.78-28 68-28Q520-912 548-884.16q28 27.84 28 68.16h168q29.7 0 50.85 21.15Q816-773.7 816-744v168q40 0 68 27.77 28 27.78 28 68Q912-440 884.16-412q-27.84 28-68.16 28v168q0 29.7-21.15 50.85Q773.7-144 744-144H576q-2-40-29.38-68t-66.5-28q-39.12 0-66.62 28-27.5 28-29.5 68Zm-168-72h112q20-45 61.5-70.5T480-312q49 0 90.5 25.5T632-216h112v-240h72q9.6 0 16.8-7.2 7.2-7.2 7.2-16.8 0-9.6-7.2-16.8-7.2-7.2-16.8-7.2h-72v-240H504v-72q0-9.6-7.2-16.8-7.2-7.2-16.8-7.2-9.6 0-16.8 7.2-7.2 7.2-7.2 16.8v72H216v112q45 20 70.5 61.5T312-480q0 50.21-25.5 91.6Q261-347 216-328v112Zm264-264Z"/>
    </symbol>
    <symbol viewBox="0 -960 960 960" id="icon--projects">
      <path d="M444-189v-270L216-591v270l228 132Zm72 0 228-131v-270L516-459v270Zm-72 84L180-258q-17.1-9.88-26.55-26.06Q144-300.23 144-320v-320q0-19.77 9.45-35.94Q162.9-692.12 180-702l264-153q17.13-10 36.07-10Q499-865 516-855l264 153q17.1 9.88 26.55 26.06Q816-659.77 816-640v320q0 19.77-9.45 35.94Q797.1-267.88 780-258L516-105q-17.13 10-36.07 10Q461-95 444-105Zm188-505 83-47-236-135-80 47 233 135Zm-152 88 82-47-237-134-80 46 235 135Z"/>
    </symbol>
    <symbol viewBox="0 -960 960 960" id="icon--reload">
      <path d="M480-192q-120 0-205.5-85T192-486l-57 57-51-51 144-144 144 144-51 51-57-57q-2 94 62 158t154 64q22 0 42-4t39-12l53 53q-30 16-63.5 25.5T480-192Zm252-144L588-480l51-51 57 57q2-94-62-158t-154-64q-21 0-41.5 4T399-680l-53-53q30-16 64-25.5t70-9.5q121 0 206 85t82 209l57-57 51 51-144 144Z"/>
    </symbol>
    <symbol viewBox="0 -960 960 960" id="icon--reorder">
      <path d="M192-360v-72h576v72H192Zm0-168v-72h576v72H192Z"/>
    </symbol>
    <symbol viewBox="0 -960 960 960" id="icon--roles">
      <path d="M672-288q30 0 51-21t21-51q0-30-21-51t-51-21q-30 0-51 21t-21 51q0 30 21 51t51 21Zm0 144q38 0 70.5-19.15T795-214q-28-18-58.77-28-30.77-10-64-10Q639-252 608-242q-31 10-59 28 20 31.7 52.5 50.85Q634-144 672-144ZM480-96q-133-30-222.5-150.5T168-515v-229l312-120 312 120v221q-22-10-39-16t-33-8v-148l-240-92-240 92v180q0 49 12.5 96t36.5 88.5q24 41.5 58.5 76T425-194q8 23 25.5 48.5T489-98l-4.5 1-4.5 1Zm191.77 0Q592-96 536-152.23q-56-56.22-56-136Q480-368 536.23-424q56.22-56 136-56Q752-480 808-423.77q56 56.22 56 136Q864-208 807.77-152q-56.22 56-136 56ZM480-480Z"/>
    </symbol>
    <symbol viewBox="0 -960 960 960" id="icon--save">
      <path d="M816-672v456q0 29.7-21.15 50.85Q773.7-144 744-144H216q-29.7 0-50.85-21.15Q144-186.3 144-216v-528q0-29.7 21.15-50.85Q186.3-816 216-816h456l144 144Zm-72 30L642-744H216v528h528v-426ZM480-252q45 0 76.5-31.5T588-360q0-45-31.5-76.5T480-468q-45 0-76.5 31.5T372-360q0 45 31.5 76.5T480-252ZM264-552h336v-144H264v144Zm-48-77v413-528 115Z"/>
    </symbol>
    <symbol viewBox="0 -960 960 960" id="icon--server-authentication">
      <path d="M288-384q-40 0-68-28t-28-68q0-40 28-68t68-28q40 0 68 28t28 68q0 40-28 68t-68 28Zm0 144q-100 0-170-70T48-480q0-100 70-170t170-70q65 0 120 32.5t88 87.5h344l120 120-180 168-84-60-72 60-96-72h-20q-24 68-85.5 106T288-240Zm0-72q63 0 111-40.5T454-456h98l70 52 71-59 81 58 82-76-46-47H449q-19-53-62.5-86.5T288-648q-70 0-119 49t-49 119q0 70 49 119t119 49Z"/>
    </symbol>
    <symbol viewBox="0 -960 960 960" id="icon--settings">
      <path d="m403-96-22-114q-23-9-44.5-21T296-259l-110 37-77-133 87-76q-2-12-3-24t-1-25q0-13 1-25t3-24l-87-76 77-133 110 37q19-16 40.5-28t44.5-21l22-114h154l22 114q23 9 44.5 21t40.5 28l110-37 77 133-87 76q2 12 3 24t1 25q0 13-1 25t-3 24l87 76-77 133-110-37q-19 16-40.5 28T579-210L557-96H403Zm59-72h36l19-99q38-7 71-26t57-48l96 32 18-30-76-67q6-17 9.5-35.5T696-480q0-20-3.5-38.5T683-554l76-67-18-30-96 32q-24-29-57-48t-71-26l-19-99h-36l-19 99q-38 7-71 26t-57 48l-96-32-18 30 76 67q-6 17-9.5 35.5T264-480q0 20 3.5 38.5T277-406l-76 67 18 30 96-32q24 29 57 48t71 26l19 99Zm18-168q60 0 102-42t42-102q0-60-42-102t-102-42q-60 0-102 42t-42 102q0 60 42 102t102 42Zm0-144Z"/>
    </symbol>
    <symbol viewBox="0 -960 960 960" id="icon--stats">
      <path d="M624-192v-288h144v288H624Zm-216 0v-576h144v576H408Zm-216 0v-384h144v384H192Z"/>
    </symbol>
    <symbol viewBox="0 -960 960 960" id="icon--summary">
      <path d="m437-249 183-231H471l26-221-173 269h146l-33 183ZM336-96l48-264H192l324-504h72l-36 312h216L408-96h-72Zm136-379Z"/>
    </symbol>
    <symbol viewBox="0 -960 960 960" id="icon--table-multiple">
      <path d="M216-192v-72h74q-45-40-71.5-95.5T192-480q0-101 61-177.5T408-758v75q-63 23-103.5 77.5T264-480q0 48 19.5 89t52.5 70v-63h72v192H216Zm336-10v-75q63-23 103.5-77.5T696-480q0-48-19.5-89T624-639v63h-72v-192h192v72h-74q45 40 71.5 95.5T768-480q0 101-61 177.5T552-202Z"/>
    </symbol>
    <symbol viewBox="0 0 24 24" id="icon--text-css">
      <path fill="currentColor" d="m5 3l-.65 3.34h13.59L17.5 8.5H3.92l-.66 3.33h13.59l-.76 3.81l-5.48 1.81l-4.75-1.81l.33-1.64H2.85l-.79 4l7.85 3l9.05-3l1.2-6.03l.24-1.21L21.94 3z"/>
    </symbol>
    <symbol viewBox="0 0 24 24" id="icon--text-html">
      <path fill="currentColor" d="m12.89 3l1.96.4L11.11 21l-1.96-.4zm6.7 9L16 8.41V5.58L22.42 12L16 18.41v-2.83zM1.58 12L8 5.58v2.83L4.41 12L8 15.58v2.83z"/>
    </symbol>
    <symbol viewBox="0 0 24 24" id="icon--text-plain">
      <path fill="currentColor" d="M6 2a2 2 0 0 0-2 2v16a2 2 0 0 0 2 2h12a2 2 0 0 0 2-2V8l-6-6zm0 2h7v5h5v11H6zm2 8v2h8v-2zm0 4v2h5v-2z"/>
    </symbol>
    <symbol viewBox="0 0 24 24" id="icon--text-x-c">
      <path fill="currentColor" d="m15.45 15.97l.42 2.44c-.26.14-.68.27-1.24.39c-.57.13-1.24.2-2.01.2c-2.21-.04-3.87-.7-4.98-1.96c-1.14-1.27-1.68-2.88-1.68-4.83C6 9.9 6.68 8.13 8 6.89C9.28 5.64 10.92 5 12.9 5c.75 0 1.4.07 1.94.19s.94.25 1.2.4l-.6 2.49l-1.04-.34c-.4-.1-.87-.15-1.4-.15c-1.15-.01-2.11.36-2.86 1.1c-.76.73-1.14 1.85-1.18 3.34c.01 1.36.37 2.42 1.08 3.2c.71.77 1.7 1.17 2.99 1.18l1.33-.12c.43-.08.79-.19 1.09-.32"/>
    </symbol>
    <symbol viewBox="0 0 24 24" id="icon--text-x-csharp">
      <path fill="currentColor" d="m11.5 15.97l.41 2.44c-.26.14-.68.27-1.24.39c-.57.13-1.24.2-2.01.2c-2.21-.04-3.87-.7-4.98-1.96Q2 15.135 2 12.21c.05-2.31.72-4.08 2-5.32C5.32 5.64 6.96 5 8.94 5c.75 0 1.4.07 1.94.19s.94.25 1.2.4l-.58 2.49l-1.06-.34c-.4-.1-.86-.15-1.39-.15c-1.16-.01-2.12.36-2.87 1.1c-.76.73-1.15 1.85-1.18 3.34c0 1.36.37 2.42 1.08 3.2c.71.77 1.71 1.17 2.99 1.18l1.33-.12c.43-.08.79-.19 1.1-.32M13.89 19l.61-4H13l.34-2h1.5l.32-2h-1.5L14 9h1.5l.61-4h2l-.61 4h1l.61-4h2l-.61 4H22l-.34 2h-1.5l-.32 2h1.5L21 15h-1.5l-.61 4h-2l.61-4h-1l-.61 4zm2.95-6h1l.32-2h-1z"/>
    </symbol>
    <symbol viewBox="0 0 24 24" id="icon--text-x-java">
      <path fill="currentColor" d="M16.5 6.08s-6.84 1.71-3.56 5.48c.97 1.11-.25 2.11-.25 2.11s2.45-1.25 1.31-2.85c-1.06-1.47-1.86-2.2 2.5-4.74m-4.47 1.2C16.08 4.08 14 2 14 2c.84 3.3-2.96 4.3-4.33 6.36c-.94 1.4.46 2.91 2.33 4.64c-.71-1.7-3.22-3.16.03-5.72M9.37 17.47c-3.08.86 1.88 2.63 5.79.96c-.38-.15-.75-.33-1.1-.54c-1.36.31-2.76.37-4.14.18c-1.31-.16-.55-.6-.55-.6m5.32-1.68c-1.75.38-3.56.47-5.34.26c-1.31-.13-.45-.77-.45-.77c-3.4 1.13 1.88 2.4 6.6 1.02c-.29-.11-.57-.3-.81-.51m3.42 3.3s.57.47-.61.83c-2.28.68-9.43.89-11.41.03c-.71-.31.63-.74 1.05-.83c.23-.06.46-.08.69-.08c-.79-.54-5.13 1.1-2.19 1.56c7.97 1.3 14.54-.6 12.47-1.51m-2.74-4.86c.29-.19.6-.35.92-.49c0 0-1.51.26-3.02.4c-1.6.16-3.21.18-4.81.06c-2.35-.31 1.29-1.2 1.29-1.2c-1.1 0-2.18.26-3.16.75c-2.05 1 5.1 1.45 8.78.48m.9 2.42c-.02.04-.04.07-.08.1c5.01-1.31 3.17-4.64.77-3.81c-.13.06-.24.14-.31.25c.14-.05.28-.09.43-.12c1.2-.24 2.92 1.63-.81 3.58m.13 4.61c-3.01.52-6.09.56-9.12.14c0 0 .46.38 2.81.53c3.6.23 9.13-.13 9.26-1.83c.03.01-.23.65-2.95 1.16"/>
    </symbol>
    <symbol viewBox="0 0 24 24" id="icon--text-x-javascript">
      <path fill="currentColor" d="M3 3h18v18H3zm4.73 15.04c.4.85 1.19 1.55 2.54 1.55c1.5 0 2.53-.8 2.53-2.55v-5.78h-1.7V17c0 .86-.35 1.08-.9 1.08c-.58 0-.82-.4-1.09-.87zm5.98-.18c.5.98 1.51 1.73 3.09 1.73c1.6 0 2.8-.83 2.8-2.36c0-1.41-.81-2.04-2.25-2.66l-.42-.18c-.73-.31-1.04-.52-1.04-1.02c0-.41.31-.73.81-.73c.48 0 .8.21 1.09.73l1.31-.87c-.55-.96-1.33-1.33-2.4-1.33c-1.51 0-2.48.96-2.48 2.23c0 1.38.81 2.03 2.03 2.55l.42.18c.78.34 1.24.55 1.24 1.13c0 .48-.45.83-1.15.83c-.83 0-1.31-.43-1.67-1.03z"/>
    </symbol>
    <symbol viewBox="0 0 24 24" id="icon--text-x-php">
      <path fill="currentColor" d="M12 18.08c-6.63 0-12-2.72-12-6.08s5.37-6.08 12-6.08S24 8.64 24 12s-5.37 6.08-12 6.08m-5.19-7.95c.54 0 .91.1 1.09.31c.18.2.22.56.13 1.03c-.1.53-.29.87-.58 1.09q-.42.33-1.29.33h-.87l.53-2.76zm-3.5 5.55h1.44l.34-1.75h1.23c.54 0 .98-.06 1.33-.17c.35-.12.67-.31.96-.58c.24-.22.43-.46.58-.73c.15-.26.26-.56.31-.88c.16-.78.05-1.39-.33-1.82c-.39-.44-.99-.65-1.82-.65H4.59zm7.25-8.33l-1.28 6.58h1.42l.74-3.77h1.14c.36 0 .6.06.71.18s.13.34.07.66l-.57 2.93h1.45l.59-3.07c.13-.62.03-1.07-.27-1.36c-.3-.27-.85-.4-1.65-.4h-1.27L12 7.35zM18 10.13c.55 0 .91.1 1.09.31c.18.2.22.56.13 1.03c-.1.53-.29.87-.57 1.09c-.29.22-.72.33-1.3.33h-.85l.5-2.76zm-3.5 5.55h1.44l.34-1.75h1.22c.55 0 1-.06 1.35-.17c.35-.12.65-.31.95-.58c.24-.22.44-.46.58-.73c.15-.26.26-.56.32-.88c.15-.78.04-1.39-.34-1.82c-.36-.44-.99-.65-1.82-.65h-2.75z"/>
    </symbol>
    <symbol viewBox="0 0 24 24" id="icon--text-x-ruby">
      <path fill="currentColor" d="M18.8 2.07c2.52.43 3.24 2.16 3.2 3.97V6l-1.14 14.93l-14.78 1.01h.01c-1.23-.05-3.96-.17-4.09-3.99l1.37-2.5l2.77 6.46l2.36-7.62l-.05.01l.02-.02l7.71 2.46l-1.99-7.78l7.35-.46l-5.79-4.74l3.05-1.7zM2 17.91v.02zM6.28 6.23c2.96-2.95 6.79-4.69 8.26-3.2c1.46 1.47-.08 5.09-3.04 8.03c-3 2.94-6.77 4.78-8.24 3.3c-1.47-1.49.04-5.19 3.01-8.13z"/>
    </symbol>
    <symbol viewBox="0 0 24 24" id="icon--text-xml">
      <path fill="currentColor" d="m12.89 3l1.96.4L11.11 21l-1.96-.4zm6.7 9L16 8.41V5.58L22.42 12L16 18.41v-2.83zM1.58 12L8 5.58v2.83L4.41 12L8 15.58v2.83z"/>
    </symbol>
    <symbol viewBox="0 -960 960 960" id="icon--time">
      <path d="m614-310 51-51-149-149v-210h-72v240l170 170ZM480-96q-79.38 0-149.19-30T208.5-208.5Q156-261 126-330.96t-30-149.5Q96-560 126-630q30-70 82.5-122t122.46-82q69.96-30 149.5-30t149.55 30.24q70 30.24 121.79 82.08 51.78 51.84 81.99 121.92Q864-559.68 864-480q0 79.38-30 149.19T752-208.5Q700-156 629.87-126T480-96Zm0-384Zm.48 312q129.47 0 220.5-91.5Q792-351 792-480.48q0-129.47-91.02-220.5Q609.95-792 480.48-792 351-792 259.5-700.98 168-609.95 168-480.48 168-351 259.5-259.5T480.48-168Z"/>
    </symbol>
    <symbol viewBox="0 -960 960 960" id="icon--time-add">
      <path d="M431.93-144Q362-144 301-170.5t-106.5-72q-45.5-45.5-72-106.57-26.5-61.07-26.5-131T122.5-611q26.5-61 72-106.5t106.55-72Q362.1-816 432-816q12 0 23.9 1 11.9 1 24.1 3v73q-11-2-23.5-3.5T432-744q-109 0-186.5 77.5T168-480q0 109 77.5 186.5T432-216q109 0 186.5-77.5T696-480q0-12-1.5-24.5T691-528h73q2 12 3 24t1 24q0 69.9-26.5 130.95Q715-288 669.5-242.5t-106.57 72q-61.07 26.5-131 26.5ZM545-313 396-462v-210h72v180l128 128-51 51Zm139-311v-108H576v-72h108v-108h72v108h108v72H756v108h-72Z"/>
    </symbol>
    <symbol viewBox="0 -960 960 960" id="icon--unlock">
      <path d="M264-624h336v-96q0-50-35-85t-85-35q-50 0-85 35t-35 85h-72q0-80 56.23-136 56.22-56 136-56Q560-912 616-855.84q56 56.16 56 135.84v96h24q29.7 0 50.85 21.15Q768-581.7 768-552v384q0 29.7-21.16 50.85Q725.68-96 695.96-96H263.72Q234-96 213-117.15T192-168v-384q0-29.7 21.15-50.85Q234.3-624 264-624Zm0 456h432v-384H264v384Zm216.21-120Q510-288 531-309.21t21-51Q552-390 530.79-411t-51-21Q450-432 429-410.79t-21 51Q408-330 429.21-309t51 21ZM264-168v-384 384Z"/>
    </symbol>
    <symbol viewBox="0 -960 960 960" id="icon--user">
      <path d="M480-480q-60 0-102-42t-42-102q0-60 42-102t102-42q60 0 102 42t42 102q0 60-42 102t-102 42ZM192-192v-96q0-23 12.5-43.5T239-366q55-32 116.29-49 61.29-17 124.5-17t124.71 17Q666-398 721-366q22 13 34.5 34t12.5 44v96H192Zm72-72h432v-24q0-5.18-3.03-9.41-3.02-4.24-7.97-6.59-46-28-98-42t-107-14q-55 0-107 14t-98 42q-5 4-8 7.72-3 3.73-3 8.28v24Zm216.21-288Q510-552 531-573.21t21-51Q552-654 530.79-675t-51-21Q450-696 429-674.79t-21 51Q408-594 429.21-573t51 21Zm-.21-72Zm0 360Z"/>
    </symbol>
    <symbol viewBox="0 -960 960 960" id="icon--warning">
      <path d="m48-144 432-720 432 720H48Zm127-72h610L480-724 175-216Zm304.79-48q15.21 0 25.71-10.29t10.5-25.5q0-15.21-10.29-25.71t-25.5-10.5q-15.21 0-25.71 10.29t-10.5 25.5q0 15.21 10.29 25.71t25.5 10.5ZM444-384h72v-192h-72v192Zm36-86Z"/>
    </symbol>
    <symbol viewBox="0 -960 960 960" id="icon--wiki-page">
      <path d="M384-408h192v-72H384v72Zm0-120h336v-72H384v72Zm0-120h336v-72H384v72Zm-72 408q-29.7 0-50.85-21.15Q240-282.3 240-312v-480q0-29.7 21.15-50.85Q282.3-864 312-864h480q29.7 0 50.85 21.15Q864-821.7 864-792v480q0 29.7-21.15 50.85Q821.7-240 792-240H312Zm0-72h480v-480H312v480ZM168-96q-29.7 0-50.85-21.15Q96-138.3 96-168v-552h72v552h552v72H168Zm144-696v480-480Z"/>
    </symbol>
    <symbol viewBox="0 -960 960 960" id="icon--workflows">
      <path d="m246-480-13-56q-14-5-26-12t-23-16l-56 17-32-56 42-40q-2-14-2.5-29t2.5-29l-42-38 32-56 55 16q11-10 23.5-17t26.5-12l13-56h64l13 56q14 5 27 12t24 17l55-16 31 56-40 37q3 15 3 30t-3 30l41 40-32 55-56-17q-11 10-23.5 16.5T323-536l-13 56h-64Zm33-120q30 0 51-21t21-51q0-30-21-51t-51-21q-30 0-51 21t-21 51q0 30 21 51t51 21ZM619-96l-16-71q-17-6-32.5-14.5T541-202l-69 22-40-70 52-49q-4-18-4-36.5t4-36.5l-52-48 40-70 68 21q14-12 30-21.5t33-15.5l16-70h80l17 70q18 6 34 15t30 22l68-21 40 70-51 47q4 19 4 37.5t-4 37.5l51 48-40 70-68-22q-14 12-30.5 21T716-166l-17 70h-80Zm41-144q40 0 68-28t28-68q0-40-28-68t-68-28q-40 0-68 28t-28 68q0 40 28 68t68 28Z"/>
    </symbol>
    <symbol viewBox="0 -960 960 960" id="icon--zoom-in">
      <path d="M765-144 526-384q-30 23-65.79 35.5-35.79 12.5-76.18 12.5Q284-336 214-406t-70-170q0-100 70-170t170-70q100 0 170 70t70 170.03q0 40.39-12.5 76.18Q599-464 577-434l239 239-51 51ZM384-408q70 0 119-49t49-119q0-70-49-119t-119-49q-70 0-119 49t-49 119q0 70 49 119t119 49Zm-36-60v-72h-72v-72h72v-72h72v72h72v72h-72v72h-72Z"/>
    </symbol>
    <symbol viewBox="0 -960 960 960" id="icon--zoom-out">
      <path d="M765-144 526-384q-30 23-65.79 35.5-35.79 12.5-76.18 12.5Q284-336 214-406t-70-170q0-100 70-170t170-70q100 0 170 70t70 170.03q0 40.39-12.5 76.18Q599-464 577-434l239 239-51 51ZM384-408q70 0 119-49t49-119q0-70-49-119t-119-49q-70 0-119 49t-49 119q0 70 49 119t119 49Zm-96-132v-72h192v72H288Z"/>
    </symbol>
  </defs>
</svg>
