<?xml version="1.0" encoding="UTF-8" standalone="no"?>
<svg
   xmlns:dc="http://purl.org/dc/elements/1.1/"
   xmlns:cc="http://creativecommons.org/ns#"
   xmlns:rdf="http://www.w3.org/1999/02/22-rdf-syntax-ns#"
   xmlns:svg="http://www.w3.org/2000/svg"
   xmlns="http://www.w3.org/2000/svg"
   xmlns:sodipodi="http://sodipodi.sourceforge.net/DTD/sodipodi-0.dtd"
   xmlns:inkscape="http://www.inkscape.org/namespaces/inkscape"
   width="650pt"
   height="410pt"
   viewBox="0 0 650 410"
   version="1.1"
   id="svg2"
   inkscape:version="0.48.2 r9819"
   sodipodi:docname="OSBNeverendingLogo3.svg"
   inkscape:export-filename="/Users/matteocantarelli/Desktop/osblogotwitter.png"
   inkscape:export-xdpi="179.38184"
   inkscape:export-ydpi="179.38184">
  <metadata
     id="metadata210">
    <rdf:RDF>
      <cc:Work
         rdf:about="">
        <dc:format>image/svg+xml</dc:format>
        <dc:type
           rdf:resource="http://purl.org/dc/dcmitype/StillImage" />
        <dc:title></dc:title>
      </cc:Work>
    </rdf:RDF>
  </metadata>
  <defs
     id="defs208">
    <inkscape:perspective
       sodipodi:type="inkscape:persp3d"
       inkscape:vp_x="0 : 256.25 : 1"
       inkscape:vp_y="0 : 1000 : 0"
       inkscape:vp_z="812.5 : 256.25 : 1"
       inkscape:persp3d-origin="406.25 : 170.83333 : 1"
       id="perspective3093" />
  </defs>
  <sodipodi:namedview
     pagecolor="#000000"
     bordercolor="#666666"
     borderopacity="1"
     objecttolerance="10"
     gridtolerance="10"
     guidetolerance="10"
     inkscape:pageopacity="0"
     inkscape:pageshadow="2"
     inkscape:window-width="1138"
     inkscape:window-height="823"
     id="namedview206"
     showgrid="false"
     inkscape:zoom="1.4142136"
     inkscape:cx="1667.0998"
     inkscape:cy="129.39979"
     inkscape:window-x="332"
     inkscape:window-y="1"
     inkscape:window-maximized="0"
     inkscape:current-layer="svg2"
     showguides="true"
     inkscape:guide-bbox="true">
    <sodipodi:guide
       orientation="-0.70710678,0.70710678"
       position="-101.82338,489.31789"
       id="guide4667" />
  </sodipodi:namedview>
  <text
     xml:space="preserve"
     style="font-size:40px;font-style:normal;font-weight:normal;line-height:125%;letter-spacing:0px;word-spacing:0px;fill:#000000;fill-opacity:1;stroke:none;font-family:Sans"
     x="59.574249"
     y="240.7435"
     id="text4247"
     sodipodi:linespacing="125%"
     transform="scale(0.8,0.8)"><tspan
       sodipodi:role="line"
       id="tspan4249"
       x="59.574249"
       y="240.7435" /></text>
  <path
     sodipodi:type="arc"
     style="opacity:0.47844831;fill:#97907f;fill-opacity:1"
     id="path3904"
     sodipodi:cx="298.0455"
     sodipodi:cy="207.38342"
     sodipodi:rx="109.248"
     sodipodi:ry="109.248"
     d="m 407.2935,207.38342 a 109.248,109.248 0 1 1 -218.496,0 109.248,109.248 0 1 1 218.496,0 z"
     transform="matrix(0.8,0,0,0.8,0,-2.8284272)"
     sodipodi:insensitive="true" />
  <text
     sodipodi:linespacing="125%"
     id="text3912"
     y="240.7435"
     x="59.574249"
     style="font-size:40px;font-style:normal;font-weight:normal;line-height:125%;letter-spacing:0px;word-spacing:0px;fill:#000000;fill-opacity:1;stroke:none;font-family:Sans"
     xml:space="preserve"
     transform="scale(0.8,0.8)"><tspan
       y="240.7435"
       x="59.574249"
       id="tspan3914"
       sodipodi:role="line" /></text>
  <path
     sodipodi:insensitive="true"
     transform="matrix(0.8,0,0,0.8,0,-2.8284272)"
     d="m 407.2935,207.38342 a 109.248,109.248 0 1 1 -218.496,0 109.248,109.248 0 1 1 218.496,0 z"
     sodipodi:ry="109.248"
     sodipodi:rx="109.248"
     sodipodi:cy="207.38342"
     sodipodi:cx="298.0455"
     id="path3924"
     style="opacity:0.47844831;fill:#97907f;fill-opacity:1"
     sodipodi:type="arc" />
  <g
     inkscape:groupmode="layer"
     id="layer1"
     inkscape:label="Layer" />
  <g
     inkscape:groupmode="layer"
     id="layer2"
     inkscape:label="Layer#1" />
  <rect
     style="fill:#000000"
     id="rect3007"
     width="1359.8157"
     height="211.84727"
     x="132.84787"
     y="51.974831" />
  <text
     xml:space="preserve"
     style="font-size:193.235672px;font-style:normal;font-weight:normal;line-height:74.00000095%;letter-spacing:0px;word-spacing:0px;fill:#000000;fill-opacity:1;stroke:none;font-family:Sans"
     x="347.30853"
     y="215.9138"
     id="text3976"
     sodipodi:linespacing="74.000001%"
     inkscape:export-filename="/Users/matteocantarelli/Documents/Development/MetaCellWorkspace/newRedmine/public/images/osblogo@2x.png"
     inkscape:export-xdpi="24.418825"
     inkscape:export-ydpi="24.418825"><tspan
       sodipodi:role="line"
       x="347.30853"
       y="215.9138"
       style="font-size:159.30940247px;font-style:normal;font-variant:normal;font-weight:normal;font-stretch:normal;line-height:74.00000095%;letter-spacing:-5.96524429px;fill:#ffffff;stroke:none;font-family:Collegiate;-inkscape-font-specification:Collegiate"
       id="tspan3960"
       dx="0">OPEN SOURCE BRAIN</tspan></text>
  <g
     inkscape:export-ydpi="24.418825"
     inkscape:export-xdpi="24.418825"
     inkscape:export-filename="/Users/matteocantarelli/Documents/Development/MetaCellWorkspace/newRedmine/public/images/osblogo@2x.png"
     style="fill:#37abc8;fill-opacity:1;stroke:none;stroke-width:1.47933363999999989;stroke-miterlimit:4;stroke-opacity:1;stroke-dasharray:none"
     transform="matrix(-0.24963301,1.0510221,-1.052165,-0.25614007,485.39474,-213.39128)"
     id="g4003">
    <path
       sodipodi:nodetypes="ccscccscccsccccc"
       inkscape:connector-curvature="0"
       id="path4005"
       transform="matrix(0.8,0,0,0.8,225.34015,-43.041619)"
       d="m 246.97187,137.48171 c -61.75255,-26.09617 -120.38439,15.77454 -123.43066,51.92681 -2.27087,18.37307 11.52851,34.75175 18.86392,43.32055 8.5286,9.96261 15.58416,42.97929 15.8781,54.21233 -4.99617,7.15233 -10.89009,13.10377 2.52865,14.42796 14.21106,-0.2045 7.4947,-10.43457 4.02729,-15.21695 -1.88186,-12.17246 -14.00556,-41.20859 -6.54851,-51.03948 3.66617,-4.83326 22.98137,-4.30471 30.23426,-3.44138 15.93601,1.93696 19.97903,28.50068 29.20214,42.95619 1.34203,2.05165 7.93713,-0.17616 5.39322,-3.4096 -13.82937,-18.65417 -18.17941,-35.79315 -16.2739,-50.73659 3.86766,-30.33107 27.41193,-60.54329 58.5896,-63.42993 4.11628,-0.85401 2.90003,-5.08483 0.11937,-5.26587 -24.33915,-1.54032 -60.4194,40.31884 -82.3941,22.48805 -41.88284,-33.54771 33.06523,-44.80201 60.35553,-30.84849 4.30048,0.57609 7.26026,-4.35139 3.45509,-5.9436 z"
       style="fill:#37abc8;fill-opacity:1;stroke:none;stroke-width:1.84916699000000007;stroke-miterlimit:4;stroke-opacity:1;stroke-dasharray:none" />
  </g>
  <g
     inkscape:export-ydpi="24.418825"
     inkscape:export-xdpi="24.418825"
     inkscape:export-filename="/Users/matteocantarelli/Documents/Development/MetaCellWorkspace/newRedmine/public/images/osblogo@2x.png"
     style="fill:#88aa00;fill-opacity:1;stroke:none;stroke-width:1.47933363999999989;stroke-miterlimit:4;stroke-opacity:1;stroke-dasharray:none"
     transform="matrix(1.0247692,-0.34177796,0.33685033,1.0291698,-214.23974,153.38617)"
     id="g3999">
    <path
       sodipodi:nodetypes="ccscccscccsccccc"
       inkscape:connector-curvature="0"
       id="path4001"
       transform="matrix(0.8,0,0,0.8,225.34015,-43.041619)"
       d="m 246.79029,135.81955 c -61.75255,-26.09617 -117.48818,19.45659 -123.24908,53.58897 -2.89456,21.31059 8.31346,28.85466 18.86392,43.32055 7.72565,10.59276 13.1349,37.80745 11.75515,50.10963 -4.99617,7.15233 -10.89009,13.10377 2.52865,14.42796 14.21106,-0.2045 7.4947,-10.43457 4.02729,-15.21695 0.14228,-12.14866 -9.88261,-37.10589 -2.42556,-46.93678 3.66617,-4.83326 22.98137,-4.30471 30.23426,-3.44138 15.93601,1.93696 19.97903,28.50068 29.20214,42.95619 1.34203,2.05165 7.93713,-0.17616 5.39322,-3.4096 -13.82937,-18.65417 -18.17941,-35.79315 -16.2739,-50.73659 3.86766,-30.33107 27.41193,-60.54329 58.5896,-63.42993 4.11628,-0.85401 2.90003,-5.08483 0.11937,-5.26587 -24.33915,-1.54032 -60.4194,40.31884 -82.3941,22.48805 -41.88284,-33.54771 32.88365,-46.46417 60.17395,-32.51065 4.30048,0.57609 7.26026,-4.35139 3.45509,-5.9436 z"
       style="fill:#88aa00;fill-opacity:1;stroke:none;stroke-width:1.84916699000000007;stroke-miterlimit:4;stroke-opacity:1;stroke-dasharray:none" />
  </g>
  <g
     id="g3120"
     transform="matrix(-0.79536783,-0.73099514,0.73723197,-0.79318838,446.90805,565.88544)"
     style="fill:#ff6600;stroke:none;stroke-width:1.47933363999999989;stroke-miterlimit:4;stroke-opacity:1;stroke-dasharray:none"
     inkscape:export-filename="/Users/matteocantarelli/Documents/Development/MetaCellWorkspace/newRedmine/public/images/osblogo@2x.png"
     inkscape:export-xdpi="24.418825"
     inkscape:export-ydpi="24.418825">
    <path
       style="fill:#ff6600;stroke:none;stroke-width:1.84916699000000007;stroke-miterlimit:4;stroke-opacity:1;stroke-dasharray:none"
       d="m 242.33593,137.90385 c -61.75255,-26.09617 -113.03382,17.37229 -118.79472,51.50467 -3.51465,16.17104 8.31346,28.85466 18.86392,43.32055 7.72565,10.59276 9.05099,34.85278 13.39915,49.5326 -4.99617,7.15233 -9.75713,15.59339 2.52865,14.42796 13.62223,-0.83975 9.19413,-6.70014 4.02729,-15.21695 -2.89123,-12.88674 -11.52661,-36.52886 -4.06956,-46.35975 3.66617,-4.83326 22.98137,-4.30471 30.23426,-3.44138 15.93601,1.93696 19.97903,28.50068 29.20214,42.95619 1.34203,2.05165 7.93713,-0.17616 5.39322,-3.4096 -13.82937,-18.65417 -18.17941,-35.79315 -16.2739,-50.73659 3.86766,-30.33107 27.41193,-60.54329 58.5896,-63.42993 4.11628,-0.85401 2.90003,-5.08483 0.11937,-5.26587 -24.33915,-1.54032 -60.4194,40.31884 -82.3941,22.48805 -41.88284,-33.54771 28.42929,-44.37987 55.71959,-30.42635 4.30048,0.57609 7.26026,-4.35139 3.45509,-5.9436 z"
       transform="matrix(0.8,0,0,0.8,225.34015,-43.041619)"
       id="path3122"
       inkscape:connector-curvature="0"
       sodipodi:nodetypes="ccscccscccsccccc" />
  </g>
</svg>
